<?xml version="1.0" encoding="utf-8"?>
<svg xmlns="http://www.w3.org/2000/svg" xmlns:xlink="http://www.w3.org/1999/xlink" version="1.1" width="400px"
  height="400px" viewBox="600 1026 400 400">
  <g id="layer1">
    <g style="fill:rgb(0,0,0); fill-opacity:1.0; stroke-linejoin: miter">
      <path
        d="M776.59174,1107.0378L775.6195,1107.0432Q755.6938,1107.6997,746.62476,1111.2344Q736.0684,1115.1849,729.1323,1125.6268Q719.75635,1139.745,718.81616,1148.7992Q716.59467,1170.2289,719.4989,1189.2174Q726.56244,1225.112,746.25824,1243.7723Q762.3159,1258.1865,774.06696,1263.6462Q795.6248,1272.98,804.2671,1271.497Q829.80884,1270.4495,847.26776,1266.3633Q862.39825,1262.2029,873.7891,1252.8186Q886.91394,1242.2249,893.53754,1225.8857Q898.20624,1212.0372,895.22473,1197.0814Q890.2083,1170.5205,868.9565,1148.6959Q841.4646,1119.5756,811.1529,1107.5948Q843.39136,1122.2634,871.93854,1163.5767Q880.95825,1178.4001,884.3229,1197.0356Q886.6149,1211.8453,881.8742,1222.7549Q864.0757,1253.2784,826.447,1254.739Q799.17694,1256.6573,796.39465,1254.5605Q774.7928,1248.1041,755.203,1233.4407Q736.0838,1217.2902,728.09247,1187.2091Q724.0969,1165.769,723.98895,1148.4633Q724.40894,1141.0913,731.8617,1127.6747Q737.20935,1118.1285,745.3592,1114.4131Q751.4213,1110.7606,771.0632,1108.9353Q787.489,1106.1023,822.35815,1117.0813Q794.40094,1106.8165,776.59174,1107.0378" />
    </g>
    <g style="fill:rgb(0,0,0); fill-opacity:1.0; stroke-linejoin: miter">
      <path
        d="M880.1129,1298.5403L880.1129,1298.5413L879.8015,1298.8241L880.175,1298.9727L880.54395,1299.1045Q880.9152,1299.2284,881.295,1299.321L881.677,1299.4058L882.0635,1299.4747L882.45416,1299.5281L882.8491,1299.5657L883.24854,1299.5886L883.4303,1299.3584L883.4391,1299.3594Q883.3147,1299.3506,882.6919,1299.2498Q882.19366,1299.1631,881.6966,1299.0377Q881.00073,1298.8674,880.1129,1298.5403 Z" />
    </g>
    <g style="fill:rgb(0,0,0); fill-opacity:1.0; stroke-linejoin: miter">
      <path
        d="M690.44214,1254.732L690.5081,1254.9034Q692.77936,1261.661,690.1872,1280.0221Q687.76044,1294.976,682.8563,1304.9037Q671.29004,1330.8668,661.5568,1344.8Q648.1532,1364.1915,634.70276,1375.9355Q654.736,1358.6534,664.06757,1346.6029Q676.8879,1330.2621,684.3361,1312.7263Q690.6512,1300.3196,692.56836,1282.3748Q693.4515,1273.4106,692.81604,1263.7904Q691.93353,1254.6974,690.44214,1254.732" />
    </g>
    <g style="fill:rgb(0,0,0); fill-opacity:1.0; stroke-linejoin: miter">
      <path
        d="M910.92126,1296.2308L910.85205,1296.2334Q903.3045,1298.8466,904.1373,1314.4905Q905.3014,1330.9674,913.6539,1346.3489Q922.73584,1362.2488,934.1388,1373.8685Q937.75665,1377.4753,940.1504,1379.3552Q965.55566,1396.9124,969.15063,1401.0681Q955.2601,1387.5896,941.84955,1377.5562Q938.3073,1374.3884,935.26013,1371.1093Q928.91473,1364.7721,915.34174,1342.7158Q907.4872,1328.3583,905.7583,1313.6018Q905.2628,1305.6903,906.4091,1302.1877Q907.00214,1300.1545,908.32416,1298.6776Q910.856,1296.0897,911.51685,1296.6588Q911.3288,1296.2104,910.92126,1296.2308" />
    </g>
    <g style="fill:rgb(0,0,0); fill-opacity:1.0; stroke-linejoin: miter">
      <path
        d="M826.9658,1068.5012L826.6046,1068.5062Q823.8354,1068.6498,824.0388,1069.7008Q823.6422,1069.9329,826.74927,1075.0377Q824.4578,1069.9152,824.4936,1069.594Q827.1349,1069.1013,832.4269,1070.7748Q845.46655,1075.2883,858.9141,1085.0839Q878.0621,1099.6093,889.7806,1115.8774Q905.2193,1136.2213,916.4593,1161.5902Q932.6084,1198.9739,932.88184,1213.4333Q933.4224,1195.2863,923.1181,1166.7269Q913.34564,1138.893,899.0283,1118.1075Q884.4427,1097.9404,863.6514,1084.0133Q841.4611,1069.5233,826.9658,1068.5012" />
    </g>
    <g style="fill:rgb(0,0,0); fill-opacity:1.0; stroke-linejoin: miter">
      <path
        d="M955.2196,1225.1357L955.21484,1225.1367L955.21,1225.1359L955.19934,1225.6392Q955.192,1225.8726,955.1848,1226.106L955.16754,1226.5354L955.1484,1226.9257Q955.1271,1227.3127,955.11005,1227.5515Q955.095,1227.7894,955.0526,1228.2621Q955.05396,1228.2627,955.0553,1228.2632Q955.1388,1227.5483,955.14716,1227.4404Q955.1782,1227.1127,955.1974,1226.7438Q955.20795,1226.5363,955.2145,1226.3159Q955.2209,1226.0956,955.2232,1225.8627Q955.226,1225.512,955.2196,1225.1357 Z" />
    </g>
    <g style="fill:rgb(0,0,0); fill-opacity:1.0; stroke-linejoin: miter">
      <path
        d="M850.214,1060.5647L849.79614,1060.5686Q846.44543,1060.4011,844.5421,1062.3033Q855.2968,1057.8406,879.9331,1074.2936Q894.50543,1085.5487,910.05396,1108.9767Q923.97205,1131.8973,934.31384,1157.6777Q953.8543,1206.8433,955.2021,1224.0103Q953.3016,1198.7444,942.28613,1166.3987Q932.6568,1135.5192,919.57587,1113.8984Q898.79236,1083.6501,883.79346,1073.7037Q860.0074,1059.6376,850.214,1060.5647" />
    </g>
    <g style="fill:rgb(0,0,0); fill-opacity:1.0; stroke-linejoin: miter">
      <path
        d="M973.89014,1284.9647L973.82385,1285.1938Q973.3144,1286.9323,972.9397,1287.9019L973.32697,1286.9211Q973.45044,1286.5834,973.48486,1286.4755Q973.6725,1285.8772,973.71466,1285.7101Q973.8066,1285.358,973.88477,1285.0323L973.8999,1284.9647L973.89014,1284.9657 Z" />
    </g>
    <g style="fill:rgb(0,0,0); fill-opacity:1.0; stroke-linejoin: miter">
      <path
        d="M867.6474,1042.8679L866.4139,1043.0518L864.585,1043.613Q871.68774,1042.5481,885.35144,1052.9678Q904.23224,1068.5431,913.59467,1079.0957Q936.83466,1105.925,945.4181,1127.8804Q960.9636,1166.8654,966.4862,1199.5498Q971.52826,1229.076,974.234,1260.9401Q975.53766,1277.1198,973.96625,1284.6888Q975.28516,1279.6438,976.01654,1272.9999Q976.74927,1270.677,976.8889,1249.4723Q976.5893,1231.3896,973.9396,1206.9132Q968.73804,1172.459,965.3509,1161.3632Q961.24,1145.2838,956.04834,1132.6301Q950.3117,1119.8021,942.3188,1107.6487Q927.5553,1086.6124,918.8104,1078.3197Q888.83435,1048.4541,867.6474,1042.8679" />
    </g>
    <g style="fill:rgb(0,0,0); fill-opacity:1.0; stroke-linejoin: miter">
      <path
        d="M710.4842,1204.6486L710.4133,1204.866Q708.8398,1211.9552,713.3556,1227.021Q726.51715,1265.0038,736.9332,1288.8141Q748.7199,1310.4219,764.4143,1317.8496Q776.06683,1321.7396,812.38074,1327.9973Q820.2251,1329.0366,829.90295,1325.6356Q836.6039,1322.0316,848.1884,1310.1427L867.8959,1281.4976Q855.71466,1295.0935,844.6458,1309.5463Q832.04156,1320.3596,828.3731,1321.9038Q819.2693,1324.5718,812.0933,1323.0948Q785.2819,1317.3916,776.1228,1314.8242Q771.27655,1313.7273,763.17163,1309.686Q749.67773,1302.7913,739.0518,1283.4407Q727.7855,1260.1208,715.2542,1228.3909Q709.82776,1212.7173,710.4842,1204.6486" />
    </g>
    <g style="fill:rgb(0,0,0); fill-opacity:1.0; stroke-linejoin: miter">
      <path
        d="M807.38904,1209.8318L807.4236,1209.9232Q807.71387,1210.7051,807.74786,1211.3214L807.72876,1215.5469Q807.73706,1217.0676,807.7769,1217.8949Q807.79443,1219.2169,808.21735,1222.1498Q808.9309,1227.1278,809.48615,1230.3561Q810.35266,1234.4506,810.67816,1236.2869Q811.0335,1237.5114,811.4556,1239.8527Q812.5151,1245.817,812.81726,1248.1978Q812.79224,1248.5591,812.4356,1249.1487Q809.23785,1253.5035,807.8055,1256.1611Q807.6601,1256.459,807.5784,1256.8007Q807.1647,1259.5363,807.03937,1259.7511Q807.3435,1259.0227,808.00134,1256.9437Q808.14636,1256.6003,808.25867,1256.4174Q809.9422,1254.0605,813.51355,1249.9375Q814.19366,1248.9889,814.205,1248.2056Q813.9223,1243.2526,812.84607,1236.0071Q812.785,1235.6499,812.6797,1235.2448Q811.1465,1229.9474,811.02515,1229.2904Q810.4887,1227.1376,809.25354,1221.2533Q808.8405,1219.4185,808.5982,1217.3358Q808.4767,1216.3566,808.36786,1215.2322Q808.28973,1214.4956,808.11255,1212.0613Q808.06274,1211.4779,808.027,1211.2869Q807.6202,1209.6671,807.38904,1209.8318" />
    </g>
    <g style="fill:rgb(0,0,0); fill-opacity:1.0; stroke-linejoin: miter">
      <path
        d="M733.4203,1147.4591L733.36096,1147.4596Q730.7077,1147.9109,726.90814,1148.2969Q725.8349,1148.4608,724.8289,1148.753Q721.6348,1149.7019,720.4911,1151.2185Q721.33685,1149.7872,724.94507,1149.3075Q726.1698,1149.1565,726.7462,1149.1517Q731.3973,1149.4056,733.2123,1149.1003Q733.68286,1149.2257,733.8253,1149.5106Q734.1384,1151.2759,734.2339,1156.715L734.23254,1162.3767Q734.2167,1163.3707,733.9804,1165.2086Q733.67035,1168.0778,732.23676,1173.84Q731.1694,1178.0468,729.86066,1180.4227Q729.7927,1180.7898,729.94116,1180.962L730.02454,1180.9585Q729.9319,1180.6843,730.04553,1180.4614Q731.6224,1178.1481,732.4913,1176.2719Q733.3414,1174.4978,734.3655,1171.645Q736.3349,1166.1449,736.7357,1162.0995Q737.02484,1159.0878,736.8596,1157.8066Q736.43805,1152.5227,735.83276,1149.8192Q735.4977,1147.6315,733.4203,1147.4591" />
    </g>
    <g style="fill:rgb(0,0,0); fill-opacity:1.0; stroke-linejoin: miter">
      <path
        d="M732.1768,1176.9006L732.1495,1176.9229Q731.354,1177.5936,731.1709,1177.9264Q730.63416,1179.3065,730.3987,1179.7775L728.8071,1183.0938Q728.31085,1184.0981,728.18835,1184.2883Q727.9458,1184.6595,727.6944,1184.9288L726.41187,1186.1626Q726.4316,1186.1055,727.7484,1185.1573Q728.22797,1184.7445,728.52466,1184.3431Q730.0189,1182.0751,729.97107,1182.0741Q730.79913,1180.5004,731.38525,1178.0663Q731.5041,1177.7993,732.1628,1177.0679Q732.17993,1177.0487,732.1878,1176.9995Q732.16016,1176.9093,732.18414,1176.9006L732.1768,1176.9006" />
    </g>
    <g style="fill:rgb(0,0,0); fill-opacity:1.0; stroke-linejoin: miter">
      <path
        d="M713.01996,1358.1263L713.01996,1358.1263Q713.0547,1358.169,713.0839,1358.2219L713.0863,1358.2219Q713.07404,1358.1918,713.0519,1358.1592Q713.0408,1358.143,713.02716,1358.1263L713.01996,1358.1263 M699.53064,1355.7585L699.4864,1355.759Q699.35535,1355.7632,699.24347,1355.7795L698.563,1355.8923L695.9895,1356.2109Q695.5933,1356.2622,695.3772,1356.3025Q692.7266,1356.8303,691.97345,1357.0829Q691.31573,1357.2705,690.3961,1357.692Q688.1557,1358.9209,688.0549,1358.9386Q687.78674,1359.0745,687.2476,1359.1445L687.1955,1359.2007L687.3306,1359.2012Q687.7695,1359.1935,687.98114,1359.1561Q688.7307,1358.9453,690.3325,1358.715Q690.925,1358.6237,691.69543,1358.5935L692.6927,1358.5631L693.6075,1358.5592Q695.80695,1358.5946,695.7355,1358.5858Q696.6351,1358.6162,698.71075,1358.7548Q698.9255,1358.7689,699.86316,1358.7505Q699.90094,1358.7605,700.0987,1358.7029L700.76544,1358.4194Q701.13837,1358.3475,701.7077,1358.2744Q703.56244,1358.0245,703.74274,1358.0295Q703.9812,1358.0132,704.45557,1358.015Q706.7946,1358.0289,706.96045,1358.0343Q707.2261,1358.0334,707.8894,1358.0073Q708.29504,1358.0037,710.50885,1357.7277Q711.12384,1357.6781,711.46045,1357.6716Q712.1159,1357.6876,712.5894,1357.8501Q711.26624,1357.4741,710.9913,1357.4371Q710.67004,1357.3696,710.378,1357.3229Q708.0776,1356.9962,707.9217,1356.9526L707.12335,1356.7863L704.8317,1356.2499Q704.23236,1356.1163,704.06323,1356.0914Q703.6735,1356.0302,702.9297,1355.9714Q701.905,1355.8833,700.3483,1355.8542Q700.1116,1355.8444,699.73785,1355.7708Q699.65857,1355.76,699.53064,1355.7585" />
    </g>
    <g style="fill:rgb(0,0,0); fill-opacity:1.0; stroke-linejoin: miter">
      <path
        d="M723.2405,1368.9043L723.2405,1368.9044Q723.1066,1368.9094,722.9631,1368.9159L722.96564,1368.9159Q723.0393,1368.9126,723.11176,1368.9097Q723.18427,1368.9067,723.2477,1368.9043L723.2405,1368.9043 M700.1601,1366.9077L700.128,1366.9078Q699.0732,1366.9294,697.995,1367.0083Q694.784,1367.4716,691.6908,1367.8206L690.5431,1367.9272Q689.21405,1368.0154,688.98474,1368.0074Q687.7167,1368.0082,687.4971,1367.9757L686.9749,1367.9918Q686.759,1367.9901,686.4178,1367.9396Q685.99243,1367.8674,685.72766,1367.7974Q684.22876,1367.3329,683.8497,1367.287L683.35785,1367.1173Q685.64056,1368.1055,687.5256,1369.126Q689.1476,1369.6273,690.9726,1369.8246Q691.29767,1369.8638,691.7345,1369.884Q696.4935,1370.0477,696.78613,1370.0769L697.5324,1370.1262L699.38916,1370.2878Q699.77826,1370.3031,700.6207,1370.4668L701.92163,1370.8326Q702.182,1370.9008,702.4223,1370.9248Q702.4863,1370.9323,702.6135,1370.9319Q702.90607,1370.9093,703.0928,1370.9131L704.04114,1370.96Q704.3028,1370.9681,704.7519,1370.9569Q704.94336,1370.9543,705.13434,1370.9425Q706.36884,1370.848,707.0754,1370.8193Q707.60516,1370.8276,710.61664,1370.9518Q711.0181,1370.9648,711.1496,1370.9626Q713.02264,1370.959,715.8688,1370.447Q717.8368,1370.107,722.1708,1368.9912Q722.3305,1368.95,722.74554,1368.9269Q718.8588,1368.9877,717.52277,1368.9623Q714.2325,1368.8711,713.2457,1368.7799Q711.74896,1368.6315,711.2214,1368.5416L707.1593,1367.826Q706.96014,1367.7837,704.99713,1367.662L703.9369,1367.5344Q703.6192,1367.48,703.50134,1367.4491Q702.8122,1367.1263,702.7048,1367.154L701.09393,1366.9478Q700.7398,1366.9147,700.1601,1366.9077" />
    </g>
    <g style="fill:rgb(0,0,0); fill-opacity:1.0; stroke-linejoin: miter">
      <path
        d="M700.7155,1357.6658L700.70404,1357.6661Q700.5921,1357.6936,700.56836,1357.779Q700.849,1357.5541,700.9596,1358.0635Q701.02747,1358.4722,700.97614,1359.1165Q700.9199,1359.9059,700.3731,1361.0922Q700.3089,1361.2413,699.9324,1361.7611Q698.2364,1363.9012,698.0797,1364.1832Q697.4642,1365.0538,696.1521,1367.2114Q694.48,1370.0126,691.74524,1375.327L690.8484,1376.7582Q689.3075,1379.1696,687.585,1380.6014Q686.0688,1381.9213,683.1684,1382.8866Q686.07684,1382.7201,688.48,1381.2286Q690.86255,1379.673,693.0112,1376.8439L693.28577,1376.4039Q696.0292,1370.4866,698.0918,1366.4097Q698.6652,1365.2964,698.95105,1364.8047L700.32733,1362.4534Q700.7401,1361.7083,700.8137,1361.4971Q701.27167,1360.1145,701.2438,1359.1953Q701.098,1357.6564,700.7155,1357.6658" />
    </g>
    <g style="fill:rgb(0,0,0); fill-opacity:1.0; stroke-linejoin: miter">
      <path
        d="M705.6478,1370.1826L705.64526,1370.1827L705.6178,1370.1906Q705.68896,1370.2802,705.82587,1370.645Q706.0959,1371.9362,706.28925,1372.2689Q707.015,1373.789,708.338,1376.1504L709.237,1377.9546Q709.5684,1378.566,710.9554,1379.7261Q711.23975,1379.9414,711.6703,1380.1233L714.0418,1381.0536Q715.0722,1381.4291,716.7026,1381.7578Q716.7814,1381.8549,721.14374,1381.7273Q718.79987,1381.442,716.90857,1381.0387Q714.8365,1380.2981,713.0092,1379.0858L712.10187,1378.2772Q710.87646,1377.5325,710.48694,1377.1074L709.0661,1375.1134Q707.13885,1372.8976,706.6119,1372.1052Q706.2673,1371.6188,705.9398,1370.5802Q705.8035,1370.3229,705.6478,1370.1826" />
    </g>
    <g style="fill:rgb(0,0,0); fill-opacity:1.0; stroke-linejoin: miter">
      <path
        d="M708.3144,1379.6287L708.297,1379.6294L708.2345,1379.6671Q708.4652,1379.6887,708.52655,1379.8467Q708.58405,1379.9861,708.57117,1380.2615Q708.5828,1380.3335,708.4527,1380.9812Q708.4281,1381.1002,708.3437,1381.3967L708.0522,1382.4056Q707.9154,1383.017,707.8749,1383.385Q707.819,1383.7406,707.7978,1384.3823L707.81976,1385.9697Q707.82495,1386.1993,707.8882,1386.4012Q707.89465,1386.4669,708.0971,1386.7661L708.15497,1386.9083Q708.17316,1386.952,708.2757,1387.5448Q708.3691,1388.1075,708.43085,1388.5905Q708.5315,1389.3586,708.6681,1390.6177Q708.7029,1390.9233,708.8801,1392.0975Q708.9009,1392.2446,708.9159,1392.481Q708.8937,1392.2357,708.97845,1391.0786L709.02966,1390.4392Q709.10767,1389.6559,709.141,1389.254Q709.16565,1388.9723,709.185,1388.597Q709.24054,1387.5719,709.21936,1386.6736Q709.219,1386.6411,709.23206,1386.5894L709.3237,1386.251Q709.36053,1386.0499,709.3537,1386.0085Q709.3545,1385.9272,709.3357,1385.8506Q709.05865,1384.8263,708.93365,1384.1406Q708.8931,1383.9211,708.85364,1383.5419Q708.8232,1383.1486,708.83057,1382.7615L708.84344,1382.3085L708.90076,1381.357Q708.9055,1381.2783,708.9059,1381.1895Q708.87787,1380.4666,708.85657,1380.395Q708.70746,1379.7323,708.3144,1379.6287" />
    </g>
    <g style="fill:rgb(0,0,0); fill-opacity:1.0; stroke-linejoin: miter">
      <path
        d="M696.46967,1380.5704L696.44995,1380.6722Q696.1482,1382.2625,695.676,1383.3748Q694.35785,1385.7576,693.582,1386.494Q693.57355,1386.5194,693.37415,1386.6318Q692.7113,1386.9413,692.6423,1387.0089Q690.97375,1388.515,689.94604,1389.0719Q689.6689,1389.2101,689.0808,1389.3877L687.34467,1389.5767Q686.90765,1389.6307,686.8514,1389.6565Q686.15704,1390.0378,686.0005,1390.305Q686.0109,1390.3325,685.9959,1390.3517Q686.16907,1390.1266,686.4298,1390.0126Q686.60724,1389.9316,686.8691,1389.9126Q687.0634,1389.9052,687.40955,1389.9425L689.2461,1390.1553Q689.7571,1390.1602,690.29193,1390.0254Q692.05176,1389.4131,693.70496,1388.1355Q694.93604,1386.6527,695.7534,1384.3302Q696.0236,1383.6235,696.0931,1383.2235Q696.3746,1381.0914,696.46967,1380.5704" />
    </g>
  </g>
</svg>