<?xml version="1.0" encoding="utf-8"?>
<svg xmlns="http://www.w3.org/2000/svg" xmlns:xlink="http://www.w3.org/1999/xlink" version="1.1" width="400px"
  height="400px" viewBox="600 1026 400 400">
  <g id="layer1">
    <g style="fill:var(--color, white); fill-opacity:1.0; stroke-linejoin: miter">
      <path
        d="M863.786,1243.087L863.786,1243.088L863.47986,1243.2988Q863.4842,1243.2992,863.48846,1243.2998Q863.6353,1243.7714,863.822,1244.2496Q864.1952,1245.2064,864.728,1246.1907Q864.99426,1246.6826,865.3005,1247.1816L865.62164,1247.6832Q864.9496,1246.6066,864.4925,1245.4502L864.3462,1245.0636Q864.206,1244.6757,864.0895,1244.2811L863.97925,1243.8854Q863.87494,1243.4885,863.79456,1243.087L863.786,1243.088 Z" />
    </g>
    <g style="fill:var(--color, white); fill-opacity:1.0; stroke-linejoin: miter">
      <path
        d="M880.1129,1298.5403L880.1129,1298.5413L879.8015,1298.8241L880.175,1298.9727L880.54395,1299.1045Q880.9152,1299.2284,881.295,1299.321L881.677,1299.4058L882.0635,1299.4747L882.45416,1299.5281L882.8491,1299.5657L883.24854,1299.5886L883.4303,1299.3584L883.4391,1299.3594Q883.3147,1299.3506,882.6919,1299.2498Q882.19366,1299.1631,881.6966,1299.0377Q881.00073,1298.8674,880.1129,1298.5403 Z" />
    </g>
    <g style="fill:var(--color, white); fill-opacity:1.0; stroke-linejoin: miter">
      <path
        d="M690.42114,1254.6823C690.67035,1255.2601,691.09686,1256.7784,691.3385,1258.8749C691.58014,1260.9713,691.634,1263.6431,691.49585,1266.8882C691.35767,1270.1334,691.03204,1273.951,690.4789,1278.013C689.9258,1282.075,689.1889,1285.8752,688.31274,1289.4214C687.43665,1292.9677,686.41125,1296.255,685.25366,1299.2847C684.09607,1302.3143,682.8055,1305.084,680.194,1310.5286C677.5825,1315.973,673.9618,1324.0475,669.6525,1331.7114C665.34326,1339.3752,660.49426,1346.7192,655.08777,1353.761C649.68134,1360.8027,643.69745,1367.5487,638.6913,1372.2098C633.6852,1376.871,633.6852,1376.871,637.05945,1373.802C637.05945,1373.802,643.9185,1367.7794,650.4425,1361.5337C656.9665,1355.288,662.8722,1348.519,668.13464,1341.2388C673.39703,1333.9586,678.04443,1326.2067,681.89984,1317.9727C685.75525,1309.7386,686.9743,1306.9417,688.054,1303.8029C689.1337,1300.6641,690.05286,1297.3136,690.7999,1293.7446C691.54706,1290.1755,692.1474,1286.3916,692.56836,1282.3749C692.9893,1278.3582,693.112,1274.068,693.0779,1270.3833C693.0438,1266.6987,692.86456,1263.5967,692.5398,1261.0757C692.2151,1258.5546,691.7398,1256.6132,691.42346,1255.8351C690.80054,1254.4806,690.72766,1255.2587,690.42114,1254.6823 Z" />
    </g>
    <g style="fill:var(--color, white); fill-opacity:1.0; stroke-linejoin: miter">
      <path
        d="M911.51935,1296.6725C911.494,1296.5146,911.3224,1296.2747,911.0259,1296.2373C910.7293,1296.2001,910.38104,1296.3263,909.9511,1296.5829C909.5212,1296.8395,908.99805,1297.2268,908.5115,1297.6206C908.0249,1298.0144,907.64606,1298.3695,907.29584,1298.7736C906.9456,1299.1776,906.62274,1299.6287,906.328,1300.1267C906.0332,1300.6249,905.7665,1301.1698,905.473,1301.9121C905.1795,1302.6545,904.87964,1303.7128,904.64844,1304.9805C904.41724,1306.248,904.2514,1307.7267,904.1505,1309.418C904.0496,1311.1093,904.0183,1313.0137,904.2191,1315.8229C904.4199,1318.6321,904.9564,1322.1147,905.74615,1325.5569C906.5359,1328.9991,907.54865,1332.406,908.78796,1335.776C910.0273,1339.146,911.50757,1342.4714,913.6538,1346.3489C915.80005,1350.2263,918.32324,1354.3,920.851,1357.812C923.3788,1361.3239,925.71454,1364.4027,927.89233,1367.0281C930.07007,1369.6536,932.08594,1371.8328,933.48096,1373.2181C934.876,1374.6035,935.76984,1375.4542,936.6137,1376.2612C937.4576,1377.0682,938.2823,1377.7994,939.07153,1378.4719C939.86084,1379.1445,940.6146,1379.7585,942.8627,1381.323C945.1107,1382.8873,948.6914,1385.3296,952.0668,1387.7197C955.4422,1390.11,958.6294,1392.4288,961.61084,1394.7029C964.5922,1396.977,967.27386,1399.311,969.1506,1401.0681C971.0273,1402.8252,971.0273,1402.8252,969.7761,1401.6538C969.7761,1401.6538,967.27386,1399.311,964.6377,1396.8242C962.00146,1394.3375,959.1881,1391.746,956.1456,1389.1104C953.10315,1386.4747,949.8214,1383.8115,946.32056,1381.1168C942.81976,1378.4221,942.197,1377.876,941.48883,1377.2319C940.78064,1376.5878,940.03534,1375.8829,939.2375,1375.1338C938.43964,1374.3846,937.61786,1373.5609,936.75555,1372.683C935.89325,1371.805,934.1218,1369.9382,932.21423,1367.617C930.30664,1365.2958,928.23895,1362.5055,926.0044,1359.2559C923.7698,1356.0061,921.4248,1352.261,918.7272,1348.202C916.0296,1344.1431,914.35205,1341.0647,912.8612,1337.9011C911.37036,1334.7375,910.081,1331.5269,909.01855,1328.2585C907.95605,1324.9901,907.1028,1321.669,906.44916,1318.302C905.79553,1314.935,905.67566,1312.9783,905.6266,1311.184C905.5776,1309.3896,905.60187,1307.8104,905.69507,1306.4473C905.7882,1305.0841,905.9525,1303.9384,906.18616,1303.005C906.41986,1302.0717,906.6139,1301.5248,906.8338,1301.019C907.0537,1300.5133,907.3011,1300.0518,907.57654,1299.6344C907.85205,1299.217,908.1541,1298.8422,908.4888,1298.5066C908.82336,1298.171,909.3646,1297.6672,909.8058,1297.3092C910.247,1296.9512,910.5861,1296.7365,910.80066,1296.6598C911.01514,1296.5831,911.08655,1296.5972,911.11084,1296.6091C911.1584,1296.7421,911.4961,1296.5516,911.51935,1296.6725 Z" />
    </g>
    <g style="fill:var(--color, white); fill-opacity:1.0; stroke-linejoin: miter">
      <path
        d="M826.74927,1075.0377C825.92566,1073.2184,824.3348,1069.5742,824.4978,1069.5935C824.66077,1069.6128,824.975,1069.5206,825.45776,1069.4868C825.94055,1069.453,826.5834,1069.4952,827.3818,1069.5883C828.1802,1069.6813,829.1154,1069.8522,831.3065,1070.4492C833.4976,1071.0464,835.9869,1071.9663,838.77515,1073.2285C841.5634,1074.4906,844.6601,1076.0715,848.0637,1077.9774C851.4674,1079.8833,855.0944,1082.1162,860.1487,1086.0275C865.2029,1089.9387,869.8662,1093.9272,874.11426,1098.0016C878.3623,1102.0759,882.2089,1106.2235,885.63367,1110.4663C889.05835,1114.7091,892.105,1119.078,895.6444,1124.1538C899.18384,1129.2297,902.5753,1134.5981,905.7927,1140.3016C909.01013,1146.0051,912.0859,1152.0292,915.0113,1158.383C917.9367,1164.7369,920.6742,1171.4508,923.4396,1178.5825C926.205,1185.7141,928.3754,1192.0166,929.9077,1197.5217C931.44006,1203.0267,932.3311,1207.7465,932.62836,1210.9103C932.9256,1214.0741,932.9256,1214.0741,932.8255,1211.9559C932.8255,1211.9559,932.9196,1207.6927,932.35315,1202.5522C931.78674,1197.4116,930.58673,1191.4121,928.7334,1184.573C926.8801,1177.7339,924.3679,1170.0787,921.8718,1163.2522C919.3757,1156.4258,916.6705,1149.9047,913.70715,1143.7212C910.7438,1137.5378,907.58545,1131.6628,904.2728,1126.065C900.96027,1120.4669,897.15015,1115.433,893.62256,1111.0957C890.09503,1106.7584,886.15656,1102.5441,881.8141,1098.4817C877.47156,1094.4194,872.72095,1090.5156,867.5644,1086.772C862.40784,1083.0282,856.8255,1079.4204,853.01306,1077.4619C849.2007,1075.5035,845.74396,1073.8608,842.5901,1072.5574C839.43616,1071.254,836.59125,1070.28,834.0599,1069.6252C831.5285,1068.9705,829.3267,1068.6261,828.3685,1068.5574C827.4104,1068.4888,826.6067,1068.4801,825.9458,1068.5479C825.2849,1068.6155,824.7638,1068.7584,824.3717,1068.9817C823.9796,1069.205,823.75336,1069.815,824.7402,1071.5653C826.6046,1075.1085,825.87164,1073.2449,826.74927,1075.0377 Z" />
    </g>
    <g style="fill:var(--color, white); fill-opacity:1.0; stroke-linejoin: miter">
      <path
        d="M955.2196,1225.1357L955.21484,1225.1367L955.21,1225.1359L955.19934,1225.6392Q955.192,1225.8726,955.1848,1226.106L955.16754,1226.5354L955.1484,1226.9257Q955.1271,1227.3127,955.11005,1227.5515Q955.095,1227.7894,955.0526,1228.2621Q955.05396,1228.2627,955.0553,1228.2632Q955.1388,1227.5483,955.14716,1227.4404Q955.1782,1227.1127,955.1974,1226.7438Q955.20795,1226.5363,955.2145,1226.3159Q955.2209,1226.0956,955.2232,1225.8627Q955.226,1225.512,955.2196,1225.1357 Z" />
    </g>
    <g style="fill:var(--color, white); fill-opacity:1.0; stroke-linejoin: miter">
      <path
        d="M850.214,1060.5647L849.79614,1060.5686Q846.44543,1060.4011,844.5421,1062.3033Q855.2968,1057.8406,879.9331,1074.2936Q894.50543,1085.5487,910.05396,1108.9767Q923.97205,1131.8973,934.31384,1157.6777Q953.8543,1206.8433,955.2021,1224.0103Q953.3016,1198.7444,942.28613,1166.3987Q932.6568,1135.5192,919.57587,1113.8984Q898.79236,1083.6501,883.79346,1073.7037Q860.0074,1059.6376,850.214,1060.5647 Z" />
    </g>
    <g style="fill:var(--color, white); fill-opacity:1.0; stroke-linejoin: miter">
      <path
        d="M973.89014,1284.9647L973.82385,1285.1938Q973.3144,1286.9323,972.9397,1287.9019L973.32697,1286.9211Q973.45044,1286.5834,973.48486,1286.4755Q973.6725,1285.8772,973.71466,1285.7101Q973.8066,1285.358,973.88477,1285.0323L973.8999,1284.9647L973.89014,1284.9657 Z" />
    </g>
    <g style="fill:var(--color, white); fill-opacity:1.0; stroke-linejoin: miter">
      <path
        d="M867.6474,1042.8679L866.4139,1043.0518L864.585,1043.613Q871.68774,1042.5481,885.35144,1052.9678Q904.23224,1068.5431,913.59467,1079.0957Q936.83466,1105.925,945.4181,1127.8804Q960.9636,1166.8654,966.4862,1199.5498Q971.52826,1229.076,974.234,1260.9401Q975.53766,1277.1198,973.96625,1284.6888Q975.28516,1279.6438,976.01654,1272.9999Q976.74927,1270.677,976.8889,1249.4723Q976.5893,1231.3896,973.9396,1206.9132Q968.73804,1172.459,965.3509,1161.3632Q961.24,1145.2838,956.04834,1132.6301Q950.3117,1119.8021,942.3188,1107.6487Q927.5553,1086.6124,918.8104,1078.3197Q888.83435,1048.4541,867.6474,1042.8679 Z" />
    </g>
    <g style="fill:var(--color, white); fill-opacity:1.0; stroke-linejoin: miter">
      <path
        d="M710.1449,1209.9261L710.2067,1211.6628Q710.6015,1218.6913,713.3556,1227.021Q731.2355,1277.5663,737.84296,1290.635Q751.3426,1312.6501,764.4143,1317.8496Q786.4569,1323.9452,813.4938,1328.1395Q818.79694,1329.0831,829.90295,1325.6356Q836.689,1321.9086,848.1884,1310.1428L867.8409,1281.5775Q860.8016,1288.9779,844.64575,1309.5464Q829.13995,1322.7994,827.2081,1322.2551Q819.986,1324.2124,813.2417,1323.3031Q776.30865,1315.7266,766.0858,1311.5831Q759.3447,1308.5161,753.25574,1302.6163Q748.5056,1298.9884,739.05194,1283.4407Q733.0257,1272.1753,715.2543,1228.3909Q711.1579,1216.7286,710.7673,1210.3025L710.1449,1209.9261 Z" />
    </g>
    <g style="fill:var(--color, white); fill-opacity:1.0; stroke-linejoin: miter">
    </g>
    <g style="fill:var(--color, white); fill-opacity:1.0; stroke-linejoin: miter">
    </g>
    <g style="fill:var(--color, white); fill-opacity:1.0; stroke-linejoin: miter">
    </g>
    <g style="fill:var(--color, white); fill-opacity:1.0; stroke-linejoin: miter">
      <path
        d="M687.1955,1359.2007C687.25024,1359.2023,687.3593,1359.202,687.4679,1359.1974C687.57654,1359.1927,687.68567,1359.1906,687.79407,1359.179C687.9024,1359.1675,688.0132,1359.1624,688.3082,1359.081C688.60333,1358.9998,689.0558,1358.9144,689.4563,1358.8544C689.8569,1358.7943,690.19446,1358.7299,690.4794,1358.6954C690.76434,1358.661,690.98615,1358.632,691.15955,1358.626C691.33295,1358.62,691.4825,1358.6067,691.65247,1358.596C691.8224,1358.5851,692.0152,1358.5907,692.22406,1358.58C692.4329,1358.5692,692.6617,1358.5609,692.8843,1358.5618C693.1068,1358.5625,693.3376,1358.5597,693.6074,1358.5592C693.87726,1358.5587,694.1864,1358.5688,694.5331,1358.5728C694.87976,1358.5767,695.2646,1358.5865,695.49365,1358.5847C695.72266,1358.583,695.81586,1358.587,696.0386,1358.5979C696.2612,1358.6088,696.59515,1358.6237,697.03735,1358.6495C697.4795,1358.6754,698.029,1358.7141,698.3914,1358.7375C698.75385,1358.7609,698.9088,1358.7617,699.1062,1358.7607C699.3035,1358.7596,699.5545,1358.7563,699.86316,1358.7505C700.1719,1358.7445,700.5114,1358.4669,700.7654,1358.4194C701.0193,1358.3718,701.1855,1358.3467,701.36926,1358.3207C701.553,1358.2947,701.7533,1358.2677,701.97,1358.241C702.1866,1358.2144,702.41986,1358.1831,702.635,1358.1544C702.8501,1358.1257,703.0193,1358.103,703.1854,1358.0833C703.3516,1358.0636,703.51447,1358.047,703.67426,1358.0347C703.83405,1358.0222,703.9906,1358.0116,704.71826,1358.0161C705.4459,1358.0205,706.8062,1358.0303,706.8535,1358.0326C706.9009,1358.0349,706.9712,1358.0347,707.06036,1358.033C707.14954,1358.0314,707.2589,1358.0294,707.3887,1358.0251C707.51843,1358.0209,707.66425,1358.015,707.81067,1358.0105C707.95703,1358.0059,708.1699,1357.9908,708.4474,1357.9656C708.7249,1357.9402,709.0687,1357.9005,709.47986,1357.8501C709.89105,1357.7997,710.3664,1357.7385,710.5638,1357.7229C710.76117,1357.7074,710.9388,1357.6953,711.0934,1357.6866C711.24805,1357.678,711.3796,1357.6729,711.48804,1357.6711C711.59656,1357.6693,711.68243,1357.671,712.01404,1357.7162C712.3456,1357.7614,712.5981,1357.8387,712.7742,1357.9316C712.9502,1358.0245,713.0498,1358.1329,713.0863,1358.2219C713.1228,1358.3109,713.1228,1358.3109,713.09845,1358.2516C713.09845,1358.2516,713.0498,1358.1329,712.9247,1358.0297C712.7996,1357.9264,712.5981,1357.8387,712.3201,1357.7666C712.0422,1357.6943,711.69305,1357.6041,711.6014,1357.5786C711.5097,1357.553,711.3947,1357.5247,711.2566,1357.4939C711.1184,1357.463,710.9572,1357.4294,710.77295,1357.3933C710.5886,1357.357,710.37445,1357.3181,709.91907,1357.2551C709.4637,1357.1921,709.07935,1357.1364,708.76495,1357.0896C708.45056,1357.0428,708.20703,1357.0052,708.0381,1356.9746C707.8692,1356.9441,707.7631,1356.9196,707.6218,1356.8909C707.4805,1356.8623,707.36304,1356.8378,707.2674,1356.8176C707.17175,1356.7976,707.0984,1356.781,707.0501,1356.7689C707.00183,1356.7568,706.96405,1356.7502,705.63715,1356.4365C704.31024,1356.1228,704.08276,1356.0917,703.9031,1356.0679C703.72345,1356.0442,703.5401,1356.0258,703.35333,1356.0076C703.16656,1355.9895,702.9767,1355.9741,702.7879,1355.9614C702.5991,1355.9486,702.3525,1355.9304,702.1159,1355.9161C701.87933,1355.9019,701.6572,1355.893,701.4504,1355.8843C701.2435,1355.8756,701.0511,1355.8689,700.8571,1355.866C700.66315,1355.8632,700.2465,1355.8722,699.89923,1355.7977C699.55194,1355.7233,699.2795,1355.7715,699.0696,1355.8074C698.8596,1355.8431,698.7168,1355.8665,698.6426,1355.8806C698.56836,1355.8949,697.9482,1355.9678,697.43335,1356.0336C696.9186,1356.0994,696.5085,1356.149,696.2013,1356.185C695.8941,1356.2212,695.68646,1356.2518,695.5742,1356.2693C695.462,1356.2867,695.0595,1356.3566,694.6887,1356.4344C694.31793,1356.5123,693.98364,1356.5823,693.6859,1356.6509C693.3882,1356.7194,693.1259,1356.778,692.8985,1356.8313C692.6711,1356.8845,692.4246,1356.9598,692.19604,1357.0215C691.9674,1357.083,691.75665,1357.143,691.5659,1357.2126C691.3751,1357.2822,691.2004,1357.343,691.0509,1357.4128C690.90137,1357.4827,690.70624,1357.558,690.4587,1357.6643C690.2111,1357.7705,689.9313,1357.934,689.6039,1358.1136C689.27655,1358.2933,688.9071,1358.5092,688.48303,1358.7266C688.059,1358.9438,687.9695,1358.9792,687.8701,1359.0135C687.7707,1359.0479,687.66833,1359.0717,687.56445,1359.0923C687.46063,1359.1129,687.3549,1359.1254,687.3019,1359.1311C687.1945,1359.1375,687.24976,1359.2,687.1955,1359.2007 Z" />
    </g>
    <g style="fill:var(--color, white); fill-opacity:1.0; stroke-linejoin: miter">
      <path
        d="M683.2913,1367.09C684.46423,1367.5675,686.75244,1368.688,687.05115,1368.8893C687.34985,1369.0906,687.6862,1369.1864,688.04504,1369.2874C688.4038,1369.3883,688.78937,1369.4667,689.19836,1369.5513C689.6073,1369.636,690.0328,1369.695,690.2275,1369.7224C690.4222,1369.7498,690.6215,1369.7726,690.822,1369.8037C691.0225,1369.8347,691.22406,1369.8519,691.4269,1369.8667C691.62976,1369.8813,691.8571,1369.8947,694.7162,1369.9907C697.5752,1370.0867,697.7676,1370.1566,697.98926,1370.1711C698.2109,1370.1857,698.4439,1370.2015,698.68744,1370.2234C698.93097,1370.2452,699.18524,1370.268,699.4566,1370.2944C699.72797,1370.3208,699.8289,1370.3298,699.9131,1370.3435C699.99725,1370.3573,700.1048,1370.3738,700.2339,1370.3955C700.3629,1370.4174,700.51215,1370.4442,700.6207,1370.4668C700.7293,1370.4895,701.1419,1370.6174,701.563,1370.7356C701.98413,1370.8538,702.35876,1370.9578,702.7101,1370.9268C703.0614,1370.8958,703.3592,1370.9242,703.6018,1370.9365C703.8444,1370.9489,703.90393,1370.9559,704.0193,1370.9594C704.1346,1370.9628,704.2611,1370.9642,704.40125,1370.9629C704.5413,1370.9617,704.6959,1370.9583,704.891,1370.9536C705.0861,1370.9489,705.45215,1370.9221,705.7516,1370.8987C706.05096,1370.8752,706.3126,1370.8594,706.5357,1370.8462C706.7588,1370.8329,706.94104,1370.8247,707.0566,1370.8196C707.1721,1370.8145,708.937,1370.8823,709.91785,1370.9243C710.8987,1370.9662,711.08734,1370.9655,711.296,1370.9603C711.50464,1370.9552,711.7345,1370.9456,711.9863,1370.9315C712.2381,1370.9175,712.51227,1370.8994,712.79034,1370.8773C713.0684,1370.8552,713.4206,1370.8182,713.87,1370.7579C714.31934,1370.6976,714.8712,1370.6138,715.5285,1370.5049C716.1858,1370.3959,716.9488,1370.2555,718.4283,1369.9131C719.9078,1369.5708,722.00134,1369.0293,722.1708,1368.9912C722.3402,1368.9532,722.5328,1368.9387,722.7458,1368.9269C722.9588,1368.915,723.19226,1368.9056,723.37756,1368.8998C723.56287,1368.8939,723.56287,1368.8939,723.43933,1368.8978C723.43933,1368.8978,723.19226,1368.9056,722.96564,1368.9159C722.739,1368.9261,722.5328,1368.9387,722.34595,1368.9429C722.15906,1368.9469,721.99036,1368.9436,719.8331,1368.9634C717.67596,1368.9833,716.8526,1368.9508,716.12085,1368.9229C715.38916,1368.8949,714.7704,1368.8713,714.26556,1368.8464C713.76074,1368.8214,713.37286,1368.7943,713.0995,1368.7657C712.8262,1368.7372,712.5439,1368.7073,712.2921,1368.68C712.0403,1368.6528,711.81506,1368.6257,711.61694,1368.5991C711.4188,1368.5724,711.2482,1368.5465,711.114,1368.5244C710.97986,1368.5022,709.23975,1368.1831,708.2503,1368.0065C707.26086,1367.8298,707.0571,1367.8098,706.8252,1367.7892C706.59326,1367.7686,706.3308,1367.7488,706.03516,1367.7308C705.73956,1367.7129,705.41064,1367.6943,705.1936,1367.6782C704.97656,1367.662,704.82654,1367.6458,704.69543,1367.6304C704.5643,1367.6151,704.45264,1367.6017,704.36206,1367.5898C704.27155,1367.578,704.20435,1367.5675,704.0765,1367.5535C703.9486,1367.5394,703.7902,1367.5106,703.5597,1367.4641C703.3292,1367.4177,703.06433,1367.1965,702.7047,1367.154C702.34503,1367.1116,701.92694,1367.0518,701.5117,1366.9966C701.09644,1366.9413,700.9047,1366.9308,700.7275,1366.9231C700.55023,1366.9153,700.3852,1366.9102,700.23157,1366.9082C700.07794,1366.9061,699.9323,1366.9111,699.74457,1366.9177C699.5568,1366.9243,699.2729,1366.9332,698.9986,1366.947C698.7243,1366.9609,698.4598,1366.9747,698.20496,1366.9916C697.9501,1367.0084,697.7041,1367.0297,696.15515,1367.2593C694.6062,1367.489,691.76776,1367.8131,691.5941,1367.8313C691.42053,1367.8496,691.236,1367.8644,691.05115,1367.8766C690.8662,1367.8888,690.68146,1367.9218,690.49695,1367.9297C690.31244,1367.9375,690.1209,1367.9471,689.7147,1367.977C689.3086,1368.0068,688.9312,1368.0126,688.5773,1368.0055C688.2233,1367.9984,687.8881,1368.0094,687.5806,1367.9797C687.27313,1367.95,686.9624,1368.1038,685.7276,1367.7974C683.3067,1367.0487,684.4774,1367.5321,683.2913,1367.09 Z" />
    </g>
    <g style="fill:var(--color, white); fill-opacity:1.0; stroke-linejoin: miter">
      <path
        d="M700.5684,1357.779C700.6231,1357.7336,700.7165,1357.6947,700.7887,1357.7278C700.86096,1357.7607,700.9221,1357.8707,700.9596,1358.0635C700.99713,1358.2561,701.0028,1358.5288,700.99524,1358.7991C700.9876,1359.0695,700.96136,1359.2921,700.9181,1359.5254C700.87476,1359.7587,700.80316,1360.0012,700.71533,1360.2556C700.62756,1360.5099,700.50946,1360.7722,700.4341,1360.9576C700.3587,1361.1431,700.2692,1361.2866,700.052,1361.5952C699.83484,1361.9039,699.4851,1362.3508,699.0147,1362.9381C698.5443,1363.5254,697.94604,1364.2467,696.1521,1367.2114C694.35815,1370.176,691.7669,1375.3406,691.67126,1375.457C691.57556,1375.5735,691.5014,1375.7179,691.4083,1375.8813C691.31525,1376.0448,691.2035,1376.2264,691.0741,1376.4253C690.9447,1376.624,690.7862,1376.8529,689.92444,1378.0623C689.0626,1379.2717,688.11725,1380.2401,687.06964,1380.998C686.02203,1381.7559,684.8551,1382.2982,683.91125,1382.6179C682.96747,1382.9375,682.96747,1382.9375,683.6173,1382.7963C683.6173,1382.7963,684.97876,1382.7291,686.27515,1382.2856C687.5716,1381.8423,688.80963,1381.1246,689.96765,1380.127C691.12573,1379.1294,692.17645,1377.8978,692.3519,1377.6912C692.5274,1377.4845,692.69055,1377.2799,692.8369,1377.0844C692.9833,1376.8888,693.11334,1376.701,693.22546,1376.5188C693.3376,1376.3364,693.35785,1376.1482,695.859,1370.9467C698.36017,1365.7451,698.8789,1364.9122,699.3347,1364.156C699.7906,1363.3997,700.1411,1362.7925,700.3922,1362.3362C700.6433,1361.88,700.7984,1361.5701,700.8467,1361.4006C700.89496,1361.2311,700.9854,1360.9463,701.05695,1360.6556C701.1285,1360.365,701.18243,1360.0889,701.21204,1359.8254C701.2417,1359.5619,701.253,1359.3121,701.2388,1359.0762C701.2246,1358.8403,701.1697,1358.5122,701.1046,1358.2649C701.0395,1358.0177,700.97424,1357.8478,700.8926,1357.7546C700.8109,1357.6614,700.7087,1357.6525,700.6547,1357.6782C700.5452,1357.7524,700.62396,1357.7307,700.5684,1357.779 Z" />
    </g>
    <g style="fill:var(--color, white); fill-opacity:1.0; stroke-linejoin: miter">
      <path
        d="M705.61456,1370.1865C705.628,1370.2026,705.65576,1370.2418,705.6801,1370.294C705.70447,1370.3461,705.7315,1370.4069,705.7622,1370.4761C705.79285,1370.5454,705.8243,1370.6249,705.86096,1370.771C705.8977,1370.917,705.9385,1371.1285,705.98236,1371.3247C706.02625,1371.5209,706.07477,1371.7018,706.1293,1371.8672C706.18384,1372.0326,706.2441,1372.1831,706.37555,1372.4485C706.507,1372.7137,706.7017,1373.1088,706.9059,1373.504C707.11,1373.8993,707.3199,1374.2972,707.5391,1374.6957C707.75836,1375.0941,707.99506,1375.4868,708.338,1376.1504C708.68097,1376.8141,709.1508,1377.8198,709.2749,1378.021C709.3989,1378.2222,709.5686,1378.4286,709.7788,1378.648C709.9891,1378.8672,710.2425,1379.1064,710.5365,1379.3765C710.8305,1379.6466,711.19775,1379.9575,711.82086,1380.1809C712.444,1380.4044,713.021,1380.6646,713.6035,1380.8911C714.18604,1381.1176,714.77606,1381.3042,715.3708,1381.456C715.9655,1381.608,716.5478,1381.7216,716.66907,1381.7507C716.7903,1381.78,717.06555,1381.7959,717.4915,1381.7991C717.9175,1381.8021,718.50146,1381.791,719.2455,1381.769C719.98956,1381.7471,720.89386,1381.7206,721.0084,1381.7253C721.1229,1381.73,721.26105,1381.7268,721.42285,1381.7158C721.5846,1381.7048,721.77,1381.686,721.9209,1381.668C722.0718,1381.6499,722.0718,1381.6499,721.9712,1381.662C721.9712,1381.662,721.77,1381.686,721.5925,1381.7021C721.415,1381.7184,721.26105,1381.7268,721.13074,1381.7273C721.0005,1381.7279,720.89386,1381.7206,720.053,1381.592C719.21216,1381.4634,718.53284,1381.3523,718.01605,1381.261C717.49927,1381.1698,717.1471,1381.1028,716.9834,1381.06C716.81964,1381.0175,716.7751,1380.9857,716.2274,1380.7715C715.6797,1380.5571,715.1539,1380.3157,714.6395,1380.0491C714.12524,1379.7823,713.6218,1379.49,713.1298,1379.1694C712.6378,1378.8488,712.2638,1378.3538,711.9322,1378.1558C711.6006,1377.9579,711.31195,1377.7751,711.08545,1377.6124C710.859,1377.4497,710.69507,1377.3143,710.59515,1377.221C710.49524,1377.1276,710.4384,1377.0752,709.81274,1376.1528C709.18713,1375.2306,708.8615,1374.8501,708.57007,1374.5127C708.2786,1374.1752,707.9803,1373.8456,707.69836,1373.5077C707.4164,1373.1698,707.1452,1372.8278,706.8862,1372.481C706.6273,1372.1343,706.55035,1372.0225,706.4755,1371.8906C706.4007,1371.7587,706.32574,1371.6083,706.2534,1371.4388C706.1811,1371.2694,706.1122,1371.0812,706.0489,1370.8715C705.9856,1370.6617,705.9383,1370.57,705.89404,1370.4979C705.8498,1370.4259,705.8101,1370.3622,705.76666,1370.3121C705.7232,1370.2621,705.6896,1370.2172,705.6731,1370.1978C705.6423,1370.1621,705.62885,1370.2028,705.61456,1370.1865 Z" />
    </g>
    <g style="fill:var(--color, white); fill-opacity:1.0; stroke-linejoin: miter">
      <path
        d="M708.23303,1379.6672C708.2782,1379.6658,708.3582,1379.6805,708.42285,1379.7228C708.48755,1379.765,708.53577,1379.8362,708.5548,1379.9392C708.5739,1380.0424,708.57825,1380.1691,708.57117,1380.2615C708.56415,1380.3538,708.559,1380.4087,708.54736,1380.4774C708.53564,1380.5461,708.5235,1380.6284,708.5043,1380.7235C708.48505,1380.8186,708.46545,1380.9268,708.44836,1381.0002C708.4312,1381.0739,708.4216,1381.1154,708.39734,1381.2026C708.37317,1381.2899,708.3387,1381.4181,708.28955,1381.585C708.2405,1381.752,708.17914,1381.9576,708.1327,1382.116C708.08624,1382.2743,708.06506,1382.3494,708.0478,1382.4244C708.0305,1382.4995,708.01434,1382.574,707.9994,1382.6482C707.9845,1382.7223,707.9705,1382.7958,707.95276,1382.8855C707.93506,1382.9753,707.91705,1383.0844,707.9011,1383.1936C707.8852,1383.3027,707.87134,1383.4124,707.85706,1383.5225C707.8427,1383.6324,707.8328,1383.7429,707.8258,1383.8357C707.81885,1383.9285,707.8145,1384.0035,707.81116,1384.0786C707.80786,1384.1537,707.8055,1384.229,707.8009,1384.3052C707.7963,1384.3813,707.7963,1384.4574,707.79846,1384.5608C707.8006,1384.6643,707.805,1384.82,707.80634,1385.0192C707.8077,1385.2184,707.81335,1385.4612,707.8153,1385.7485C707.8172,1386.0359,707.82294,1386.3673,707.9798,1386.581C708.13666,1386.7948,708.1601,1386.9114,708.18286,1387.0299C708.2057,1387.1484,708.2279,1387.2688,708.24927,1387.391C708.27057,1387.5132,708.29144,1387.6372,708.3115,1387.7642C708.3316,1387.891,708.35156,1388.0214,708.37085,1388.1536C708.3901,1388.2859,708.4087,1388.4202,708.4264,1388.5564C708.44415,1388.6926,708.46155,1388.8309,708.47784,1388.9629C708.49414,1389.0948,708.5102,1389.227,708.52747,1389.3711C708.5447,1389.5153,708.56244,1389.6711,708.58105,1389.8386C708.5996,1390.0062,708.61896,1390.1855,708.6328,1390.315C708.6467,1390.4445,708.6552,1390.5139,708.6638,1390.5831C708.67236,1390.6523,708.6811,1390.7214,708.6902,1390.7905C708.6992,1390.8595,708.70844,1390.9283,708.72485,1391.0447C708.7413,1391.1611,708.7652,1391.3267,708.79016,1391.4952C708.81506,1391.6638,708.8409,1391.8354,708.8677,1392.0103C708.8944,1392.1849,708.9098,1392.3633,708.9149,1392.481C708.9201,1392.5988,708.9184,1392.6537,708.9121,1392.7091C708.90576,1392.7645,708.8949,1392.8204,708.8795,1392.877C708.86414,1392.9333,708.8442,1392.9904,708.8251,1393.042C708.8059,1393.0935,708.78143,1393.1465,708.7433,1393.2101C708.7051,1393.2737,708.6532,1393.348,708.5875,1393.433C708.52185,1393.518,708.4425,1393.6135,708.3761,1393.6907C708.3097,1393.7677,708.3097,1393.7677,708.35394,1393.7163C708.35394,1393.7163,708.4425,1393.6135,708.51733,1393.5215C708.5921,1393.4294,708.6532,1393.348,708.70056,1393.2773C708.74786,1393.2065,708.78143,1393.1465,708.8013,1393.0972C708.82117,1393.0477,708.8442,1392.9904,708.8626,1392.9336C708.88104,1392.8767,708.8949,1392.8204,708.90424,1392.7646C708.9136,1392.7089,708.9184,1392.6537,708.9186,1392.5989C708.9188,1392.5442,708.9098,1392.3633,708.9142,1392.185C708.9185,1392.0067,708.92914,1391.8315,708.94006,1391.6595C708.9509,1391.4875,708.962,1391.3188,708.97327,1391.1536C708.98456,1390.9883,708.9898,1390.92,708.9952,1390.8513C709.00055,1390.7826,709.00616,1390.7139,709.01196,1390.645C709.0177,1390.5763,709.0236,1390.5073,709.02966,1390.4392C709.0357,1390.3711,709.0546,1390.1841,709.0719,1390.0076C709.0891,1389.831,709.1047,1389.6658,709.1185,1389.512C709.1324,1389.358,709.1446,1389.2153,709.15466,1389.0839C709.1647,1388.9524,709.1736,1388.8092,709.1812,1388.6677C709.18884,1388.5262,709.1958,1388.3862,709.20166,1388.2478C709.2076,1388.1095,709.2125,1387.9725,709.2161,1387.8372C709.2197,1387.7018,709.2222,1387.5701,709.22375,1387.4402C709.22534,1387.3102,709.2256,1387.1816,709.2251,1387.0544C709.2246,1386.9272,709.2231,1386.8015,709.21936,1386.6736C709.21564,1386.5455,709.413,1386.1556,709.3357,1385.8506C709.2583,1385.5457,709.1896,1385.2844,709.13464,1385.0664C709.0798,1384.8483,709.0422,1384.6735,709.0156,1384.5437C708.989,1384.414,708.9766,1384.3514,708.96484,1384.2864C708.95306,1384.2214,708.935,1384.157,708.92456,1384.092C708.91406,1384.027,708.9045,1383.962,708.8956,1383.898C708.8867,1383.8339,708.8754,1383.7361,708.8638,1383.639C708.8522,1383.542,708.8452,1383.4446,708.8402,1383.3467C708.83527,1383.2489,708.83234,1383.1505,708.8301,1383.0509C708.8278,1382.9513,708.8283,1382.8827,708.82947,1382.8135C708.8307,1382.7444,708.8327,1382.6743,708.83496,1382.603C708.8372,1382.5317,708.8401,1382.4597,708.8405,1382.3896C708.84094,1382.3196,708.8564,1382.0797,708.87024,1381.877C708.8841,1381.6743,708.89105,1381.5109,708.8989,1381.3872C708.90686,1381.2634,708.9068,1381.1764,708.90466,1381.129C708.9025,1381.0817,708.89636,1380.9631,708.89087,1380.8538C708.88544,1380.7443,708.882,1380.648,708.87463,1380.5642C708.86725,1380.4803,708.86127,1380.4089,708.84753,1380.3464C708.83386,1380.2839,708.7932,1380.1293,708.7284,1380.008C708.66364,1379.8867,708.59753,1379.7959,708.526,1379.7324C708.4545,1379.6691,708.3715,1379.6349,708.32477,1379.6289C708.2306,1379.6257,708.28046,1379.6644,708.23303,1379.6672 Z" />
    </g>
    <g style="fill:var(--color, white); fill-opacity:1.0; stroke-linejoin: miter">
      <path
        d="M685.99585,1390.3517C686.0244,1390.3124,686.0903,1390.2379,686.17053,1390.1709C686.2508,1390.1038,686.3467,1390.047,686.45703,1390.0009C686.5674,1389.9547,686.6959,1389.9305,686.77966,1389.9207C686.86334,1389.9108,686.9365,1389.9062,687.1013,1389.9163C687.26605,1389.9264,687.5126,1389.951,687.8387,1389.991C688.1648,1390.0309,688.56995,1390.0939,688.92346,1390.1318C689.27704,1390.1698,689.4594,1390.1573,689.6338,1390.1396C689.8081,1390.1221,689.97455,1390.098,690.13245,1390.0642C690.2904,1390.0304,690.4402,1389.9867,690.69696,1389.887C690.95374,1389.7872,691.3298,1389.6161,691.7251,1389.4089C692.12036,1389.2019,692.53455,1388.958,692.9684,1388.6787C693.40216,1388.3993,693.85565,1388.0837,694.1139,1387.6445C694.37213,1387.2053,694.5799,1386.8966,694.7821,1386.5344C694.98425,1386.1722,695.1838,1385.7551,695.38257,1385.2817C695.5813,1384.8082,695.77576,1384.2756,695.89526,1383.9343C696.0147,1383.5931,696.0678,1383.3883,696.11926,1383.0746C696.17065,1382.7609,696.22394,1382.3312,696.2897,1381.7849C696.3554,1381.2388,696.47473,1380.5823,696.57117,1380.0308C696.6676,1379.4792,696.6676,1379.4792,696.60333,1379.8469C696.60333,1379.8469,696.47473,1380.5823,696.34326,1381.1958C696.2118,1381.8094,696.0649,1382.2977,695.9434,1382.6667C695.82196,1383.0359,695.7266,1383.2828,695.6584,1383.4087C695.59015,1383.5347,695.29614,1384.0559,695.0215,1384.5133C694.7468,1384.9707,694.4882,1385.367,694.2451,1385.6998C694.00195,1386.0327,693.7764,1386.3011,693.582,1386.494C693.3875,1386.6869,692.814,1386.8208,692.44226,1387.1644C692.07056,1387.508,691.7169,1387.8142,691.38184,1388.083C691.0468,1388.3519,690.73004,1388.5834,690.4298,1388.7776C690.1295,1388.9717,690.0499,1389.0204,689.94604,1389.0719C689.8422,1389.1234,689.72345,1389.172,689.5911,1389.22C689.4588,1389.2678,689.31305,1389.3153,689.1742,1389.3641C689.0353,1389.413,688.5886,1389.4513,688.2036,1389.4879C687.81854,1389.5245,687.51306,1389.5548,687.2864,1389.5839C687.05975,1389.6129,686.90894,1389.6343,686.83014,1389.6636C686.75134,1389.693,686.63184,1389.7694,686.52185,1389.8462C686.4118,1389.9229,686.3104,1389.9901,686.2239,1390.0632C686.13727,1390.1362,686.06244,1390.2118,686.03,1390.2522C685.96936,1390.3334,686.02405,1390.311,685.99585,1390.3517 Z" />
    </g>
    <g style="fill:var(--color, white); fill-opacity:1.0; stroke-linejoin: miter">
    </g>
    <g style="fill:var(--color, white); fill-opacity:1.0; stroke-linejoin: miter">
    </g>
    <g style="fill:var(--color, white); fill-opacity:1.0; stroke-linejoin: miter">
      <path
        d="M809.2874,1176.0109C809.2322,1176.2181,809.09064,1176.5931,809.0071,1176.9338C808.9236,1177.2745,808.87714,1177.5767,808.86743,1177.8411C808.8577,1178.1056,808.8819,1178.3346,809.0197,1178.9224C809.15753,1179.5101,809.39984,1180.4705,809.66724,1181.3811C809.9347,1182.2917,810.22925,1183.1521,810.5486,1183.9634C810.868,1184.7748,811.21265,1185.5374,811.4068,1185.897C811.60095,1186.2565,811.5733,1186.2299,811.6461,1186.5376C811.7189,1186.8455,811.8361,1187.3755,811.9979,1188.1208C812.1598,1188.8663,812.3624,1189.827,812.5996,1191.1145C812.83673,1192.4021,813.0809,1193.9318,813.31244,1195.5127C813.544,1197.0935,813.76056,1198.7261,813.9647,1200.4098C814.1688,1202.0935,814.3645,1203.8278,814.53064,1205.0581C814.6967,1206.2883,814.8035,1206.8293,814.88513,1207.3269C814.9668,1207.8245,815.027,1208.2766,815.235,1208.6592C815.443,1209.0417,815.4965,1209.403,815.53357,1209.6743C815.5707,1209.9456,815.6215,1210.1279,815.69165,1210.3317C815.7618,1210.5354,815.85535,1210.7769,815.97217,1211.0637C816.08905,1211.3505,816.2243,1211.6873,816.2925,1211.8741C816.3607,1212.061,816.38776,1212.1722,816.4088,1212.2737C816.42993,1212.3751,816.4476,1212.4661,816.45703,1212.5468C816.4665,1212.6274,816.4746,1212.6973,816.46545,1213.4111C816.4563,1214.1249,816.4086,1215.4397,816.3012,1216.7C816.1938,1217.9601,816.0435,1219.1675,815.8451,1220.322C815.6466,1221.4767,815.39996,1222.5787,815.1775,1223.4084C814.9551,1224.238,814.75824,1224.8671,814.5044,1225.5725C814.2505,1226.278,813.93915,1227.0587,813.56976,1227.9136C813.2004,1228.7686,812.7741,1229.6975,812.5179,1230.2542C812.26166,1230.8109,812.23,1230.923,812.2001,1231.039C812.17017,1231.1549,812.14233,1231.2749,812.1167,1231.3992C812.09106,1231.5236,812.06757,1231.6521,812.0204,1232.1462C811.9732,1232.6403,811.90674,1233.3784,811.84753,1233.958C811.7884,1234.5376,811.7367,1234.9584,811.6925,1235.2202C811.64825,1235.4822,811.61224,1235.5829,811.59143,1235.584C811.5707,1235.5851,811.5707,1235.5851,811.5873,1235.5864C811.5873,1235.5864,811.6287,1235.5953,811.68304,1235.4395C811.73737,1235.2834,811.81067,1234.9713,811.90314,1234.5018C811.9956,1234.0323,812.10767,1233.4053,812.2394,1232.6218C812.37103,1231.8384,812.40094,1231.7241,812.4338,1231.6042C812.4666,1231.4845,812.501,1231.3694,812.53674,1231.2593C812.5725,1231.1492,812.60974,1231.0441,812.6431,1230.9556C812.6765,1230.8671,813.2193,1229.928,813.70154,1229.051C814.1838,1228.174,814.6027,1227.3617,814.9586,1226.6135C815.3146,1225.8654,815.60724,1225.1805,815.8345,1224.561C816.06177,1223.9417,816.4277,1222.869,816.7491,1221.7307C817.0705,1220.5924,817.3438,1219.396,817.56433,1218.1412C817.7849,1216.8865,817.9565,1215.5745,818.08734,1214.2106C818.2182,1212.8467,818.225,1212.7068,818.22437,1212.5591C818.2237,1212.4114,818.2121,1212.261,818.1931,1212.1077C818.1742,1211.9542,818.1453,1211.7977,818.0944,1211.5974C818.0435,1211.3971,817.87396,1211.0076,817.7524,1210.703C817.6308,1210.3984,817.5408,1210.1462,817.4774,1209.9529C817.4141,1209.7594,817.37897,1209.6321,817.3728,1209.5975C817.3666,1209.563,817.34296,1209.202,817.44196,1208.7556C817.54095,1208.3091,817.44885,1207.8469,817.32776,1207.3501C817.2067,1206.8534,817.06744,1206.3196,816.9186,1205.7922C816.7698,1205.265,816.4817,1203.5292,816.1732,1201.8147C815.8648,1200.1002,815.5479,1198.4377,815.22534,1196.8269C814.9027,1195.216,814.5771,1193.6561,814.2403,1192.144C813.9035,1190.632,813.60376,1189.5265,813.3617,1188.6475C813.1197,1187.7683,812.93134,1187.0996,812.79614,1186.6394C812.66095,1186.1793,812.57745,1185.9186,812.52985,1185.8312C812.48224,1185.7438,812.08936,1185.0808,811.70996,1184.3582C811.3306,1183.6354,810.9724,1182.856,810.6336,1182.0209C810.2948,1181.1858,809.9748,1180.2957,809.6779,1179.3477C809.38104,1178.3997,809.3293,1178.2411,809.3019,1178.0459C809.2744,1177.8506,809.2674,1177.6006,809.2798,1177.2976C809.2921,1176.9945,809.3249,1176.6395,809.3346,1176.4421C809.39496,1176.0372,809.2367,1176.2184,809.2874,1176.0109 Z" />
    </g>
    <g style="fill:var(--color, white); fill-opacity:1.0; stroke-linejoin: miter">
    </g>
    <g style="fill:var(--color, white); fill-opacity:1.0; stroke-linejoin: miter">
      <path
        d="M710.5639,1212.0006L710.5556,1212.0648Q710.36206,1213.3477,710.3651,1214.1376Q710.5108,1215.6705,710.6943,1219.8096L710.957,1223.188Q711.0345,1225.4156,711.05597,1226.7484Q711.0481,1227.6943,711.0222,1228.1473Q710.8201,1231.4967,710.74097,1233.3003Q710.6822,1234.5367,710.6884,1235.1592Q710.9746,1239.9852,711.02814,1247.5056L711.26587,1252.3224L711.2792,1253.1853Q711.2405,1255.2568,711.2502,1255.53Q711.29504,1256.2488,711.4662,1257.2504L711.47815,1257.7849Q711.4307,1259.6381,711.07513,1262.5961Q710.4885,1265.488,710.23816,1268.1416Q710.07526,1271.178,709.9016,1276.0165Q709.87366,1276.5024,709.78314,1279.9957Q709.7197,1285.4186,709.6549,1286.311L710.3266,1286.8174Q710.4558,1286.0607,710.48364,1285.7856Q710.7165,1283.9164,711.269,1277.4465L712.2513,1268.514Q712.33923,1267.7826,712.5222,1266.7537Q713.18066,1263.6006,713.41693,1262.1443Q713.8462,1259.2023,713.8988,1258.547Q714.01483,1257.4615,714.0083,1256.941L714.24304,1255.6362L714.2768,1255.1466Q714.2399,1253.9524,714.1598,1253.0862Q713.52075,1247.458,713.4942,1246.9875Q713.2179,1242.1575,713.0524,1240.2592Q712.8346,1237.6519,712.50555,1234.8389Q712.45807,1233.9652,712.4573,1228.141Q712.4294,1227.1106,712.3911,1226.6458Q712.1877,1224.3197,712.06256,1223.1525L711.55023,1219.8303Q710.91473,1214.2429,710.8189,1214.1038Q710.79596,1213.7339,710.78613,1212.2885Q710.7992,1212.1713,710.5639,1212.0006 Z" />
    </g>
    <g style="fill:var(--color, white); fill-opacity:1.0; stroke-linejoin: miter">
    </g>
    <g style="fill:var(--color, white); fill-opacity:1.0; stroke-linejoin: miter">
    </g>
    <g style="fill:var(--color, white); fill-opacity:1.0; stroke-linejoin: miter">
      <path
        d="M867.8818,1284.9393C867.9038,1284.8154,868.0425,1284.6954,867.78723,1284.6775C867.53204,1284.6595,867.5309,1284.7764,867.51355,1285.0605C867.49615,1285.3446,867.45526,1285.7803,867.3468,1286.9138C867.2383,1288.0475,867.0561,1289.7925,867.0188,1290.383C866.98157,1290.9738,866.94745,1291.4957,866.91504,1291.9573C866.8826,1292.419,866.85187,1292.8202,866.82294,1293.1602C866.794,1293.5001,866.7668,1293.7804,866.4685,1296.918C866.17017,1300.0554,866.16266,1300.208,866.16077,1300.3203C866.1588,1300.4327,866.15704,1300.5476,866.1568,1300.666C866.15656,1300.7844,866.1579,1300.9061,866.1633,1301.04C866.1688,1301.1738,866.19916,1301.8076,866.2257,1302.3352C866.2523,1302.8629,866.2752,1303.2887,866.2879,1303.6116C866.3006,1303.9344,866.3063,1304.15,866.3056,1304.2671C866.30493,1304.3843,866.313,1304.4983,866.3119,1304.6697C866.3107,1304.8412,866.30646,1305.1055,866.2987,1305.4568C866.2909,1305.808,866.2795,1306.2448,866.2711,1306.8324C866.2627,1307.42,866.39,1308.3828,866.4862,1309.2168C866.58234,1310.0508,867.2459,1310.7543,867.3858,1311.4929C867.5257,1312.2317,867.65125,1312.9271,867.7555,1313.5743C867.8598,1314.2216,868.51404,1319.1763,868.8749,1321.7988C869.23566,1324.4215,869.2809,1324.7072,869.32886,1324.9924C869.37683,1325.2776,869.4257,1325.5627,869.47656,1325.8474C869.5274,1326.1321,869.581,1326.4164,869.641,1326.7258C869.7009,1327.0354,869.7636,1327.3442,869.8213,1327.6147C869.87897,1327.8851,869.93164,1328.1173,869.97943,1328.3112C870.0272,1328.505,870.0702,1328.6605,870.20264,1329.0233C870.335,1329.3861,870.522,1329.9418,870.66986,1330.4348C870.81775,1330.928,870.93787,1331.3551,871.0302,1331.7161C871.12256,1332.0771,871.18713,1332.3722,871.2446,1332.6785C871.3022,1332.9847,871.36304,1333.3335,871.4118,1333.6628C871.4606,1333.9923,871.4972,1334.3024,871.52167,1334.5931C871.54614,1334.8839,871.5585,1335.1554,871.56165,1335.3494C871.5649,1335.5432,871.5649,1335.5432,871.56274,1335.414C871.56274,1335.414,871.5585,1335.1554,871.5421,1334.8774C871.5257,1334.5996,871.4972,1334.3024,871.45654,1333.9858C871.41583,1333.6693,871.36304,1333.3335,871.2981,1332.9783C871.2332,1332.6232,871.18713,1332.3722,871.1133,1332.0552C871.0394,1331.7382,870.93787,1331.3551,870.8085,1330.906C870.6791,1330.4569,870.522,1329.9418,870.35803,1329.3541C870.19403,1328.7665,870.1687,1328.6373,870.1417,1328.4677C870.1147,1328.298,870.08655,1328.0892,870.0573,1327.8418C870.0281,1327.5945,869.99774,1327.3081,869.9663,1326.9832C869.93494,1326.6583,869.91,1326.3717,869.88745,1326.085C869.865,1325.7981,869.84406,1325.5115,869.8259,1325.2249C869.80786,1324.9381,869.7909,1324.6517,869.77783,1324.3673C869.7647,1324.0829,869.60657,1319.085,869.4984,1316.2488C869.3902,1313.4126,869.3407,1312.7218,869.28064,1311.9873C869.2205,1311.2529,869.1496,1310.4745,869.2772,1309.6187C869.40485,1308.763,869.2274,1307.9082,869.1282,1307.2993C869.029,1306.6903,869.00226,1306.1932,868.97473,1305.779C868.94727,1305.3649,868.9239,1305.0327,868.9044,1304.7798C868.8849,1304.5269,868.8688,1304.3462,868.8616,1304.254C868.8544,1304.1619,868.8352,1303.973,868.801,1303.7019C868.7669,1303.4309,868.71747,1303.066,868.65356,1302.6038C868.5897,1302.1415,868.5109,1301.581,868.4596,1301.2255C868.40826,1300.8699,868.3952,1300.765,868.3839,1300.6643C868.3726,1300.5636,868.3631,1300.4668,868.35645,1300.3745C868.34973,1300.2822,868.34393,1300.1946,868.33997,1298.5992C868.33594,1297.0039,868.3244,1293.8524,868.3209,1293.5408C868.3175,1293.2291,868.3095,1292.859,868.29694,1292.4307C868.28436,1292.0023,868.2673,1291.5153,868.2457,1290.9695C868.2241,1290.4236,868.1951,1289.8362,868.1864,1288.0898C868.1776,1286.3435,868.1645,1285.7969,868.14386,1285.4031C868.1232,1285.0094,868.1067,1284.76,867.90076,1284.5427C867.6948,1284.3256,867.5117,1284.5834,867.5592,1284.6802C867.5914,1284.9042,867.89716,1284.8123,867.8818,1284.9393 Z" />
    </g>
    <g style="fill:var(--color, white); fill-opacity:1.0; stroke-linejoin: miter">
      <path
        d="M689.6204,1253.5503C689.6558,1253.5641,689.72394,1253.5968,689.78845,1253.6361C689.853,1253.6754,689.9141,1253.7214,689.97156,1253.7749C690.02905,1253.8284,690.08276,1253.8892,690.16223,1254.0315C690.24164,1254.174,690.3419,1254.3895,690.4263,1254.5883C690.5106,1254.787,690.5929,1254.9625,690.6726,1255.1173C690.75226,1255.2721,690.8382,1255.4017,690.9276,1255.5178C691.01697,1255.634,691.1199,1255.7556,691.23413,1255.8667C691.3483,1255.9779,691.4686,1256.0842,691.59766,1256.1819C691.7266,1256.2795,691.8634,1256.3687,692.0123,1256.4639C692.1613,1256.5592,692.40625,1256.6907,692.73,1256.8401C693.05365,1256.9896,693.46155,1257.16,693.9563,1257.352C694.451,1257.5442,695.03375,1257.7579,695.5121,1257.9993C695.99036,1258.2405,696.37897,1258.4641,696.7064,1258.6382C697.0338,1258.8124,697.2947,1258.9537,697.49854,1259.0559C697.70233,1259.1581,697.8676,1259.2218,698.0051,1259.2744C698.1426,1259.327,698.3434,1259.398,698.5449,1259.4567C698.74646,1259.5154,698.9487,1259.5623,699.1511,1259.5994C699.35345,1259.6364,699.55524,1259.6643,699.735,1259.6875C699.9148,1259.7106,700.1068,1259.7322,700.3008,1259.7451C700.4947,1259.7579,700.6895,1259.7612,700.8673,1259.3667C701.0451,1258.972,701.2307,1258.9496,701.33704,1258.9363C701.44336,1258.923,701.5398,1258.9071,701.7075,1258.8733C701.8752,1258.8395,702.12463,1258.7878,702.4575,1258.7175C702.7904,1258.6471,703.20703,1258.5577,703.7003,1258.4685C704.1936,1258.3792,704.6697,1258.3092,705.05676,1258.2513C705.44385,1258.1935,705.7419,1258.1471,705.95135,1258.1118C706.1608,1258.0765,706.2835,1258.0529,706.3436,1258.0386C706.4038,1258.0243,706.46405,1258.0103,706.52405,1257.9951C706.584,1257.98,706.6437,1257.9639,706.7031,1257.9468C706.7625,1257.9296,706.82166,1257.9114,706.984,1257.8467C707.1464,1257.7819,707.4031,1257.6787,707.656,1257.5879C707.9089,1257.4972,708.1606,1257.4292,708.40643,1257.3694C708.6523,1257.3097,708.89233,1257.258,709.2609,1257.1554C709.6295,1257.0527,710.0664,1256.9106,710.4072,1256.7943C710.748,1256.678,710.9926,1256.5873,711.1411,1256.5225C711.2896,1256.4575,711.342,1256.4183,711.3833,1256.3752C711.4247,1256.3323,711.536,1256.239,711.67267,1256.1019C711.8093,1255.9648,711.9714,1255.7839,712.1588,1255.5591C712.3462,1255.3344,712.55896,1255.0657,712.7312,1254.8422C712.9035,1254.6187,712.9035,1254.6187,712.78864,1254.7677C712.78864,1254.7677,712.55896,1255.0657,712.3546,1255.3197C712.1503,1255.5737,711.9714,1255.7839,711.81775,1255.9502C711.6642,1256.1166,711.536,1256.239,711.4331,1256.3176C711.33026,1256.3962,711.342,1256.4183,711.25757,1256.4661C711.17316,1256.5138,710.9926,1256.5873,710.71594,1256.6865C710.4393,1256.7858,710.0664,1256.9106,709.5974,1257.0613C709.1285,1257.2119,708.89233,1257.258,708.6504,1257.3124C708.4084,1257.3667,708.1606,1257.4292,707.9054,1257.4946C707.65027,1257.5599,707.38477,1257.6201,707.1133,1257.688C706.84186,1257.7557,706.78687,1257.7644,706.7274,1257.7732C706.668,1257.7821,706.60864,1257.7898,706.5493,1257.7966C706.49,1257.8033,706.4307,1257.8091,706.37036,1257.814C706.30994,1257.8188,706.2515,1257.8248,706.10315,1257.83C705.9548,1257.8351,705.7149,1257.8395,705.38477,1257.8438C705.05457,1257.8479,704.6344,1257.8522,704.11914,1257.855C703.6038,1257.8579,703.1111,1257.8951,702.7158,1257.9248C702.3205,1257.9543,702.0112,1257.9766,701.7891,1257.9917C701.567,1258.0067,701.4335,1258.0128,701.3941,1258.0125C701.35474,1258.0121,701.1726,1258.0123,700.9866,1257.6201C700.8006,1257.2279,700.64105,1257.2444,700.4824,1257.2537C700.3238,1257.2628,700.167,1257.2712,700.005,1257.28C699.843,1257.289,699.6971,1257.2976,699.56726,1257.2979C699.43744,1257.298,699.3019,1257.291,699.15985,1257.2776C699.0178,1257.2642,698.869,1257.2471,698.7027,1257.2188C698.5364,1257.1906,698.4781,1257.1896,698.358,1257.1628C698.23785,1257.1361,698.02124,1257.0841,697.7252,1257.0039C697.42914,1256.9238,697.0566,1256.8169,696.5713,1256.693C696.086,1256.5691,695.3747,1256.4681,694.80835,1256.3652C694.24194,1256.2625,693.76917,1256.1664,693.39185,1256.0763C693.0145,1255.9862,692.735,1255.9048,692.54895,1255.8298C692.363,1255.755,692.2217,1255.6965,692.09753,1255.6404C691.97345,1255.5844,691.85425,1255.5198,691.7373,1255.4508C691.6203,1255.3818,691.5029,1255.3108,691.38385,1255.2349C691.2648,1255.1588,691.17377,1255.0868,691.0683,1254.9978C690.9628,1254.9087,690.8447,1254.7914,690.7206,1254.644C690.59644,1254.4966,690.46326,1254.3224,690.34204,1254.1097C690.2209,1253.8971,690.16003,1253.823,690.09924,1253.7616C690.0384,1253.7002,689.97345,1253.6467,689.9048,1253.6008C689.8362,1253.5549,689.76385,1253.5167,689.72546,1253.5005C689.6501,1253.4705,689.6575,1253.5641,689.6204,1253.5503 Z" />
    </g>
    <g style="fill:var(--color, white); fill-opacity:1.0; stroke-linejoin: miter">
      <path
        d="M710.2424,1256.0054C710.2467,1256.0804,710.21826,1256.2192,710.16394,1256.3337C710.10956,1256.4484,710.0528,1256.5463,709.9796,1256.6299C709.9065,1256.7134,709.8139,1256.7834,708.7991,1257.4371C707.78424,1258.0908,706.03564,1259.5847,705.8989,1259.666C705.76227,1259.7473,705.6327,1259.819,705.51025,1259.8809C705.38776,1259.9427,705.2724,1259.9949,705.1642,1260.0374C705.0559,1260.0797,704.9548,1260.1124,704.7189,1260.1674C704.483,1260.2223,704.2384,1260.2561,703.985,1260.2688C703.7316,1260.2814,703.46954,1260.2728,703.1987,1260.2432C702.9279,1260.2134,702.6483,1260.1626,702.5599,1260.1343C702.47144,1260.1061,702.3932,1260.0784,702.3251,1260.0514C702.257,1260.0244,702.1991,1259.9979,702.15137,1259.9722C702.1036,1259.9463,702.066,1259.9211,701.8975,1259.788C701.72906,1259.6548,701.5717,1259.5365,701.42554,1259.4329C701.2794,1259.3292,701.14435,1259.2405,701.0487,1259.1813C700.953,1259.1221,700.953,1259.1221,701.0168,1259.1615C701.0168,1259.1615,701.14435,1259.2405,701.2831,1259.3342C701.4219,1259.428,701.5717,1259.5365,701.7328,1259.6598C701.8938,1259.7831,702.066,1259.9211,702.10693,1259.9465C702.14795,1259.9719,702.1991,1259.9979,702.2604,1260.0245C702.3217,1260.0511,702.3932,1260.0784,702.47485,1260.1062C702.5565,1260.1342,702.6483,1260.1626,702.925,1260.2063C703.20166,1260.2501,703.46954,1260.2728,703.72876,1260.2743C703.9879,1260.2758,704.2384,1260.2561,704.4801,1260.2153C704.7218,1260.1744,704.9548,1260.1124,705.0582,1260.0764C705.16174,1260.0405,705.2724,1259.9949,705.39014,1259.9395C705.5078,1259.884,705.6327,1259.819,705.76465,1259.7441C705.8966,1259.6693,706.03564,1259.5847,707.97253,1258.3652C709.90936,1257.1456,710.03253,1257.0457,710.12805,1256.9243C710.2236,1256.803,710.2929,1256.6708,710.3283,1256.5271C710.3637,1256.3833,710.344,1256.2305,710.33386,1256.1537C710.3182,1256.0,710.24786,1256.0823,710.2424,1256.0054 Z" />
    </g>
    <g style="fill:var(--color, white); fill-opacity:1.0; stroke-linejoin: miter">
      <path
        d="M907.67676,1295.0555C907.5602,1295.0793,907.3195,1295.1224,907.06494,1295.148C906.81036,1295.1735,906.54193,1295.1819,906.2596,1295.1735C905.97723,1295.165,905.68085,1295.1392,905.2302,1295.0404C904.7796,1294.9417,904.10266,1294.7738,903.34393,1294.6007C902.5852,1294.4276,901.7445,1294.2488,900.82166,1294.0662C899.8988,1293.8834,898.89404,1293.6953,897.49,1293.3628C896.086,1293.0304,894.4168,1292.5642,892.91907,1292.1167C891.4213,1291.6692,890.0923,1291.2539,888.9303,1290.8794C887.7683,1290.505,886.7763,1290.1646,883.67755,1289.2607C880.5788,1288.3569,875.3352,1286.5637,874.3408,1286.0845C873.3464,1285.6052,872.3747,1285.129,871.4358,1284.655C870.49695,1284.181,869.59973,1283.6938,868.7449,1283.1936C867.89,1282.6932,867.06854,1282.196,866.3388,1281.6134C865.6091,1281.0308,865.6091,1281.0308,866.0956,1281.4192C866.0956,1281.4192,867.06854,1282.196,867.9011,1282.6943C868.73376,1283.1925,869.59973,1283.6938,870.48584,1284.2222C871.372,1284.7506,872.2878,1285.2904,873.2375,1285.834C874.1872,1286.3777,875.19104,1286.9236,880.2612,1289.2C885.3314,1291.4764,886.2879,1291.7483,887.3788,1292.0266C888.4696,1292.305,889.72754,1292.5984,891.15247,1292.9108C892.57733,1293.2231,894.16864,1293.5593,895.92896,1293.9353C897.6893,1294.3114,898.7748,1294.4539,899.7556,1294.5894C900.73645,1294.7249,901.63513,1294.8572,902.4512,1294.9893C903.2672,1295.1215,904.00085,1295.2518,904.6572,1295.3829C905.31366,1295.514,905.6503,1295.5376,905.9568,1295.5422C906.26324,1295.5469,906.55536,1295.5339,906.833,1295.5039C907.1107,1295.474,907.37384,1295.4261,907.5017,1295.3933C907.7484,1295.3295,907.5579,1295.0865,907.67676,1295.0555 Z" />
    </g>
    <g style="fill:var(--color, white); fill-opacity:1.0; stroke-linejoin: miter">
      <path
        d="M783.41644,1257.4537L783.4164,1257.4537Q784.0537,1257.0011,783.6025,1256.3657L783.6022,1256.3654Q783.5079,1256.2328,783.4016,1256.1765L783.4015,1256.1764Q783.74506,1256.3582,786.21545,1257.0482L785.78564,1257.0481Q785.9441,1257.004,786.13885,1257.0231L786.1388,1257.0231Q786.8758,1257.0952,794.43207,1259.0052L794.4786,1259.0186L794.48395,1259.0203L794.491,1259.0226Q802.1075,1261.524,803.46265,1262.155L803.5688,1262.2146L803.56915,1262.2148L803.3958,1262.1276Q804.39325,1262.4858,807.3597,1263.1819L807.3524,1263.1802Q807.9028,1263.3038,809.2569,1263.9884L809.06256,1263.9199Q810.71906,1264.2726,811.31525,1264.4999L811.269,1264.4839Q812.1852,1264.7704,815.5781,1266.2235L815.4727,1266.1868Q816.99634,1266.6003,819.5116,1266.9832L819.4577,1266.9768Q822.98364,1267.2708,824.2292,1266.6781L824.1613,1266.7145L824.16254,1266.7137L824.15735,1266.7169Q827.5174,1264.6658,829.5909,1262.6165C829.9051,1262.3059,830.4116,1262.3088,830.7222,1262.623C831.03284,1262.9373,831.02985,1263.4438,830.71564,1263.7544L830.71564,1263.7544Q828.5097,1265.9346,824.99097,1268.0826L824.9858,1268.0858L824.98456,1268.0865L824.9167,1268.1229Q823.2811,1268.9011,819.32477,1268.5713L819.2709,1268.565Q816.6649,1268.1682,815.05365,1267.731L814.94824,1267.6942Q811.63074,1266.2733,810.79156,1266.011L810.7453,1265.995Q810.26434,1265.8116,808.72943,1265.4849C808.662,1265.4705,808.5966,1265.4475,808.5351,1265.4164L808.5351,1265.4164Q807.358,1264.8214,807.00146,1264.7412L806.9942,1264.7395Q803.93744,1264.0222,802.8549,1263.6334L802.6816,1263.5461L802.6812,1263.5459L802.78735,1263.6055Q801.518,1263.0145,793.99176,1260.5426L793.99884,1260.5449L793.99347,1260.5432L794.04,1260.5565Q786.5993,1258.6758,785.9828,1258.6154L785.9827,1258.6154Q786.0853,1258.6254,786.21484,1258.5894C786.0722,1258.6285,785.9246,1258.6282,785.78503,1258.5892L785.78503,1258.5892Q783.14886,1257.8528,782.6533,1257.5907L782.6532,1257.5906Q782.42377,1257.4691,782.2982,1257.2926L782.2979,1257.2922Q781.82275,1256.6232,782.49,1256.1493C782.85016,1255.8934,783.34955,1255.978,783.6054,1256.3383C783.86127,1256.6985,783.7767,1257.1979,783.41644,1257.4537 Z" />
    </g>
    <g style="fill:var(--color, white); fill-opacity:1.0; stroke-linejoin: miter">
      <path
        d="M657.98364,991.7632L657.98364,991.7631Q657.98987,991.7413,657.99115,991.7311L657.99115,991.7312Q657.967,991.92487,658.1716,992.07263L658.21875,992.1042Q658.2319,992.1123,658.24023,992.1148L658.24036,992.1148Q658.1873,992.09894,658.0452,992.12067L658.05566,992.11896Q657.90155,992.1446,657.7185,992.2379L657.7707,992.2088L656.8766,992.75214L656.8444,992.7707Q656.2851,993.076,656.0238,993.17896C655.61273,993.34094,655.1482,993.139,654.9862,992.7279C654.8242,992.31683,655.0262,991.8523,655.43726,991.6903L655.43726,991.6903Q655.606,991.62384,656.0778,991.3663L656.04565,991.3848L656.93976,990.8415L656.99194,990.8124Q657.39496,990.607,657.79297,990.5407L657.8034,990.539Q658.30096,990.46295,658.69885,990.582L658.699,990.582Q658.89374,990.64026,659.06104,990.74384L659.1082,990.7754Q659.67206,991.18256,659.5788,991.92944L659.5788,991.92957Q659.56226,992.06195,659.5222,992.2022C659.401,992.627,658.9583,992.87317,658.53345,992.75195C658.1086,992.63074,657.8624,992.18805,657.98364,991.7632 Z" />
    </g>
    <g style="fill:var(--color, white); fill-opacity:1.0; stroke-linejoin: miter">
      <path
        d="M680.01135,1214.1674L680.01135,1214.1674Q682.0086,1216.5226,678.2018,1224.0321L678.20105,1224.0336Q673.844,1232.5869,668.55493,1238.4763L668.5459,1238.4862Q646.7859,1261.9175,631.21625,1270.884C630.8334,1271.1045,630.34424,1270.9729,630.1238,1270.5901C629.9033,1270.2073,630.0349,1269.718,630.4178,1269.4976L630.4178,1269.4976Q645.77783,1260.6519,667.37354,1237.3973L667.3645,1237.4072Q672.51355,1231.6738,676.7754,1223.3073L676.77466,1223.3087Q680.101,1216.747,678.791,1215.2023C678.50525,1214.8654,678.5468,1214.3605,678.8838,1214.0747C679.22076,1213.789,679.7256,1213.8304,680.01135,1214.1674 Z" />
    </g>
    <g style="fill:var(--color, white); fill-opacity:1.0; stroke-linejoin: miter">
      <path
        d="M684.15607,1238.3164L684.15607,1238.3164Q684.5181,1239.6533,683.5923,1241.2007L683.6089,1241.1715Q675.7618,1255.6294,675.1757,1256.5098L675.20776,1256.4573Q668.171,1269.0237,660.20667,1280.8079C659.9592,1281.174,659.4619,1281.2701,659.0958,1281.0227C658.72974,1280.7753,658.63354,1280.278,658.881,1279.9119L658.881,1279.9119Q666.8085,1268.1824,673.81177,1255.6755L673.8438,1255.623Q674.39044,1254.802,682.20264,1240.4083L682.21924,1240.3792Q682.7961,1239.415,682.61176,1238.7346C682.4963,1238.3081,682.7483,1237.8688,683.17474,1237.7533C683.6012,1237.6378,684.0406,1237.8899,684.15607,1238.3164 Z" />
    </g>
    <g style="fill:var(--color, white); fill-opacity:1.0; stroke-linejoin: miter">
      <path
        d="M683.2208,1271.4674L683.2208,1271.4674Q684.2415,1275.0283,682.49524,1280.5453L682.50464,1280.5132Q681.216,1285.2648,674.4656,1302.6539L674.46875,1302.6455Q673.70795,1304.6725,672.2021,1309.7118C672.0756,1310.1351,671.62994,1310.3757,671.2066,1310.2493C670.78326,1310.1228,670.54266,1309.6771,670.6691,1309.2538L670.6691,1309.2538Q672.191,1304.161,672.9708,1302.0833L672.974,1302.0748Q679.69415,1284.7635,680.96045,1280.0945L680.96985,1280.0624Q682.5705,1275.0054,681.68274,1271.9083C681.561,1271.4836,681.8066,1271.0405,682.2313,1270.9188C682.65607,1270.7971,683.09906,1271.0427,683.2208,1271.4674 Z" />
    </g>
    <g style="fill:var(--color, white); fill-opacity:1.0; stroke-linejoin: miter">
      <path
        d="M710.0134,1142.06L710.0134,1142.06Q710.2153,1139.2441,707.11975,1136.0464L707.10596,1136.0319Q704.8764,1133.6104,702.1057,1133.7902L702.17145,1133.7831Q696.8784,1134.5692,695.8185,1143.7007L695.8171,1143.7119Q694.5533,1153.3972,695.65784,1159.7008L695.66113,1159.7212Q696.14124,1162.9489,697.0392,1166.0428L697.047,1166.0718Q697.66754,1168.5536,701.3054,1179.4355L701.31116,1179.4535Q701.9899,1181.6548,702.43274,1183.7935L702.4277,1183.7706Q703.49225,1188.2494,703.5046,1197.9048C703.5051,1198.3466,703.1474,1198.7053,702.70557,1198.7058C702.26373,1198.7063,701.90515,1198.3485,701.9046,1197.9067L701.9046,1197.9067Q701.8925,1188.4381,700.87103,1184.1407L700.86597,1184.1179Q700.4384,1182.053,699.7822,1179.9249L699.78796,1179.9429Q696.1303,1169.0016,695.49475,1166.46L695.50256,1166.4889Q694.57446,1163.2911,694.0785,1159.9565L694.0818,1159.9769Q692.9351,1153.4329,694.2305,1143.5049L694.2291,1143.5161Q695.4304,1133.1669,701.93634,1132.2006L702.0021,1132.1935Q705.5357,1131.9641,708.2831,1134.9481L708.2693,1134.9336Q711.86237,1138.6453,711.6094,1142.1746C711.57776,1142.6152,711.1949,1142.9469,710.7542,1142.9153C710.31354,1142.8837,709.9818,1142.5007,710.0134,1142.06 Z" />
    </g>
    <g style="fill:var(--color, white); fill-opacity:1.0; stroke-linejoin: miter">
      <path
        d="M710.8889,1285.4724L710.8889,1285.4724Q712.8833,1285.1693,714.25006,1287.2844L714.3056,1287.3857Q733.902,1330.2112,737.34894,1332.2817C737.4546,1332.3452,737.5442,1332.4323,737.61066,1332.536L737.61066,1332.536Q745.2676,1344.4882,758.24615,1355.9094L758.2501,1355.913Q775.25635,1371.0786,799.0746,1383.0734L799.068,1383.0701Q813.45245,1390.148,830.61694,1392.8171L830.57794,1392.8121Q837.2193,1393.5128,844.21747,1388.6888L844.3126,1388.6326Q854.6475,1383.4448,856.9435,1375.8398L856.94336,1375.8402Q874.2929,1318.2617,868.5363,1298.949C868.4101,1298.5255,868.65106,1298.0801,869.07446,1297.9539C869.49786,1297.8276,869.9434,1298.0685,870.06964,1298.492L870.06964,1298.492Q875.9632,1318.2642,858.47534,1376.3019L858.4752,1376.3022Q855.9804,1384.5659,845.0304,1390.0625L845.12555,1390.0062Q837.6402,1395.1659,830.4101,1394.4032L830.3711,1394.3982Q812.96564,1391.6914,798.3616,1384.5056L798.355,1384.5023Q774.3484,1372.4128,757.1852,1357.107L757.18915,1357.1106Q744.04175,1345.5406,736.26337,1333.399L736.5251,1333.6533Q732.6532,1331.3274,712.85065,1288.0515L712.9062,1288.1528Q712.1008,1286.9066,711.1293,1287.0542C710.69244,1287.1206,710.28455,1286.8203,710.2182,1286.3835C710.15186,1285.9468,710.4521,1285.5388,710.8889,1285.4724 Z" />
    </g>
    <g style="fill:var(--color, white); fill-opacity:1.0; stroke-linejoin: miter">
      <path
        d="M868.4001,1290.7174C868.36816,1290.7174,868.3359,1290.7194,868.30334,1290.7233C867.8647,1290.7761,867.55194,1291.1747,867.60486,1291.6133Q867.67426,1292.1888,867.68964,1292.9042L867.6887,1292.9052L867.659,1294.0548L867.6586,1294.0558Q867.6584,1294.0614,867.65826,1294.068L867.65826,1294.069Q867.6574,1294.107,867.6567,1294.2552L867.648,1294.2562Q867.5834,1294.3145,867.51886,1294.3856L867.51935,1294.3866Q867.3518,1294.5579,867.26776,1294.83L867.2677,1294.8309Q867.1495,1295.2126,867.11426,1296.1553L867.11383,1296.171Q867.0984,1297.049,867.1698,1297.6116L867.1871,1297.7036L867.1739,1297.6394L867.36774,1298.8345L867.3591,1298.8354Q867.29706,1299.1295,867.2052,1299.54L867.194,1299.6014Q867.1026,1300.2405,867.108,1300.4996L867.108,1300.4999Q867.1098,1300.5874,867.12134,1300.6622L867.1176,1300.6632Q867.1414,1300.9993,867.24286,1301.3259L867.24786,1301.3416L867.2481,1301.3423L867.28784,1301.4397Q867.5112,1301.8983,867.632,1302.2332L867.62335,1302.2341Q867.6344,1302.5038,867.66223,1303.0162L867.66284,1303.0258Q867.82416,1305.4543,867.8319,1305.8314L867.8322,1305.844Q867.83575,1305.9418,867.8435,1306.0143L867.8435,1306.0153Q867.899,1306.5359,868.32715,1306.7305L868.3289,1306.7313Q868.5543,1306.8331,868.74274,1306.8331Q869.16626,1306.8331,869.4024,1306.3185L869.40265,1306.318C869.4356,1306.2461,869.4576,1306.1698,869.46814,1306.0914Q869.6422,1304.7968,869.3668,1302.6522L869.36597,1302.6532Q869.34595,1302.4087,869.26666,1302.1117L869.25793,1302.1127Q869.46436,1302.0403,869.65625,1301.8507L869.6564,1301.8506C869.7086,1301.799,869.75354,1301.7404,869.7898,1301.6765Q869.9207,1301.4459,869.9275,1301.1345L869.9275,1301.1355Q869.9314,1300.958,869.8959,1300.7314L869.8959,1300.7324Q869.88184,1300.6401,869.86584,1300.5443L869.8572,1300.5453Q869.8661,1300.4375,869.8732,1300.3121L869.87445,1300.2769Q869.8816,1299.7096,869.8589,1299.1539L869.8578,1299.1337Q869.8478,1298.9832,869.83856,1298.8395L869.82983,1298.8405Q869.8766,1298.7063,869.92694,1298.5114L869.9402,1298.4504Q869.9793,1298.2292,869.97296,1297.9944L869.96906,1297.9338Q869.89825,1297.2474,869.87317,1296.8743L869.873,1296.8752Q869.7893,1295.0626,869.74603,1294.7639L869.7459,1294.7633Q869.72876,1294.6455,869.69324,1294.5527C869.61456,1294.347,869.45807,1294.1895,869.26685,1294.1057L869.2582,1294.1067C869.2583,1294.1025,869.2584,1294.0992,869.2585,1294.0961L869.2892,1292.9076L869.28925,1292.8698Q869.27216,1292.0751,869.19336,1291.4216C869.14435,1291.0155,868.79913,1290.7174,868.4001,1290.7174 Z" />
    </g>
    <g style="fill:var(--color, white); fill-opacity:1.0; stroke-linejoin: miter">
      <path
        d="M639.09924,975.74567L639.09924,975.74567Q639.2119,975.59296,639.2996,975.49677L639.3301,975.46515L639.3831,975.413C639.42145,975.37537,639.4635,975.3417,639.5086,975.31244L639.5086,975.31244L639.54767,975.2871C639.6918,975.19366,639.86206,975.14905,640.03345,975.1599L640.03345,975.1599L640.05853,975.1615C640.3687,975.18115,640.63947,975.37866,640.75287,975.668L640.75287,975.668L640.76404,975.69653C640.8055,975.80225,640.82385,975.9156,640.8181,976.029L640.8181,976.029L640.8153,976.0842L640.80023,976.2033L640.7835,976.2854L640.76965,976.3427L640.73895,976.45166L640.7336,976.47L640.5641,977.0208C640.43414,977.4431,639.98645,977.6801,639.56415,977.5502C639.14185,977.4202,638.90485,976.97253,639.0348,976.55023L639.0348,976.55023L639.2043,975.9994L639.1989,976.0177L639.2296,975.90875L639.21576,975.96606L639.2325,975.884L639.2174,976.00305L639.2202,975.9478L639.2743,976.2803L639.2631,976.2518L639.95746,976.7583L639.9324,976.7567L640.41815,976.6295L640.3791,976.65485L640.5046,976.55426L640.45154,976.6064L640.482,976.57477Q640.44995,976.6099,640.3867,976.6956C640.1244,977.05115,639.62354,977.1267,639.268,976.8644C638.9125,976.60205,638.8369,976.1012,639.09924,975.74567 Z" />
    </g>
  </g>
</svg>